<svg width="15" height="14" viewBox="0 0 15 14" fill="none" xmlns="http://www.w3.org/2000/svg">
<g id="Frame" clip-path="url(#clip0_1_729)">
<path id="language" d="M2.206 9.559V11.03C2.20519 11.4015 2.34496 11.7595 2.59723 12.0322C2.8495 12.3048 3.19559 12.472 3.566 12.5H3.676H5.882V13.971H3.676C2.896 13.971 2.14794 13.6611 1.5964 13.1096C1.04485 12.5581 0.735 11.81 0.735 11.03V9.559H2.206ZM11.765 5.883L15 13.971H13.415L12.532 11.765H9.525L8.643 13.971H7.06L10.295 5.883H11.765ZM11.029 8L10.112 10.29H11.944L11.029 8ZM4.412 0V1.471H7.353V6.618H4.412V8.824H2.941V6.618H0V1.471H2.941V0H4.412ZM11.03 0.735C11.81 0.735 12.5581 1.04485 13.1096 1.5964C13.6611 2.14794 13.971 2.896 13.971 3.676V5.147H12.5V3.676C12.5 3.28587 12.345 2.91171 12.0692 2.63585C11.7933 2.35998 11.4191 2.205 11.029 2.205H8.824V0.735H11.03ZM2.941 2.941H1.471V5.147H2.941V2.941ZM5.882 2.941H4.412V5.147H5.882V2.941Z" fill="#10385B"/>
</g>
<defs>
<clipPath id="clip0_1_729">
<rect width="15" height="13.971" fill="white"/>
</clipPath>
</defs>
</svg>
