<svg width="22" height="14" viewBox="0 0 22 14" fill="none" xmlns="http://www.w3.org/2000/svg">
<g id="Group 13032">
<g id="Group 13031">
<g id="Group">
<path id="Vector" d="M17.9473 1V3.76075" stroke="white" stroke-linecap="round" stroke-linejoin="round"/>
<path id="Vector_2" d="M11.6943 1V3.76075" stroke="white" stroke-linecap="round" stroke-linejoin="round"/>
</g>
<path id="Vector_3" d="M14.8241 13.4934H19.8616C20.4885 13.4934 21 12.9819 21 12.355V3.5173C21 2.89036 20.4885 2.37891 19.8616 2.37891H9.78103C9.15409 2.37891 8.64264 2.89036 8.64264 3.5173V7.38345" stroke="white" stroke-linecap="round" stroke-linejoin="round"/>
<path id="Vector_4" d="M21 6H8.64264" stroke="white" stroke-linecap="round" stroke-linejoin="round"/>
</g>
<path id="Vector_5" d="M2.57102 6.30999L4.25994 5.92783L3.91614 2.38773L1.04434 2.64541C0.960911 3.27781 0.713995 7.19825 3.71812 10.3124C6.93387 13.6791 11.1995 13.377 11.7485 13.3339L11.9972 10.4673L8.49074 10.0937L8.02906 11.8648" stroke="white" stroke-linecap="round" stroke-linejoin="round"/>
</g>
</svg>
