<svg width="14" height="14" viewBox="0 0 14 14" fill="none" xmlns="http://www.w3.org/2000/svg">
<path id="instagram" d="M7 0C8.9 0 9.139 0.00700006 9.885 0.0420001C10.466 0.0541089 11.0407 0.164328 11.585 0.368C12.0524 0.5431 12.4756 0.818572 12.825 1.175C13.1809 1.52483 13.4562 1.94797 13.632 2.415C13.8351 2.95938 13.9449 3.5341 13.957 4.115C13.991 4.861 14 5.1 14 7C14 8.9 13.993 9.139 13.958 9.885C13.9455 10.466 13.8353 11.0407 13.632 11.585C13.4524 12.0501 13.1776 12.4725 12.825 12.825C12.4725 13.1776 12.0501 13.4524 11.585 13.632C11.0407 13.8354 10.466 13.9456 9.885 13.958C9.139 13.991 8.9 14 7 14C5.1 14 4.861 13.993 4.115 13.958C3.53405 13.9455 2.95934 13.8353 2.415 13.632C1.9499 13.4524 1.5275 13.1776 1.17497 12.825C0.822433 12.4725 0.547555 12.0501 0.368 11.585C0.164254 11.0408 0.0540323 10.466 0.0420001 9.885C0.00900006 9.139 0 8.9 0 7C0 5.1 0.00700006 4.861 0.0420001 4.115C0.0540323 3.534 0.164254 2.95923 0.368 2.415C0.547555 1.9499 0.822433 1.5275 1.17497 1.17497C1.5275 0.822433 1.9499 0.547555 2.415 0.368C2.95929 0.164595 3.53406 0.054712 4.115 0.043C4.861 0.00899998 5.1 0 7 0ZM7 3.5C6.30777 3.5 5.63108 3.70527 5.0555 4.08986C4.47993 4.47444 4.03133 5.02107 3.76642 5.66061C3.50152 6.30015 3.4322 7.00388 3.56725 7.68282C3.7023 8.36175 4.03564 8.98539 4.52513 9.47487C5.01461 9.96436 5.63825 10.2977 6.31718 10.4327C6.99612 10.5678 7.69985 10.4985 8.33939 10.2336C8.97893 9.96867 9.52556 9.52007 9.91014 8.9445C10.2947 8.36892 10.5 7.69223 10.5 7C10.5 6.07174 10.1313 5.1815 9.47487 4.52513C8.8185 3.86875 7.92826 3.5 7 3.5ZM11.55 3.325C11.55 3.15194 11.4987 2.98277 11.4025 2.83888C11.3064 2.69498 11.1697 2.58283 11.0098 2.51661C10.85 2.45038 10.674 2.43305 10.5043 2.46681C10.3346 2.50058 10.1787 2.58391 10.0563 2.70628C9.93391 2.82865 9.85057 2.98456 9.81681 3.1543C9.78305 3.32403 9.80038 3.49996 9.86661 3.65985C9.93283 3.81973 10.045 3.95639 10.1889 4.05254C10.3328 4.14868 10.5019 4.2 10.675 4.2C10.9071 4.2 11.1296 4.10781 11.2937 3.94372C11.4578 3.77962 11.55 3.55706 11.55 3.325V3.325ZM7 4.9C7.41534 4.9 7.82135 5.02316 8.1667 5.25391C8.51204 5.48466 8.7812 5.81264 8.94015 6.19636C9.09909 6.58009 9.14068 7.00233 9.05965 7.40969C8.97862 7.81705 8.77861 8.19123 8.48492 8.48492C8.19123 8.77861 7.81705 8.97862 7.40969 9.05965C7.00233 9.14068 6.58009 9.09909 6.19636 8.94015C5.81264 8.7812 5.48466 8.51204 5.25391 8.1667C5.02316 7.82135 4.9 7.41534 4.9 7C4.9 6.44305 5.12125 5.9089 5.51508 5.51508C5.9089 5.12125 6.44305 4.9 7 4.9Z" fill="#10385B"/>
</svg>
