<svg width="16" height="14" viewBox="0 0 16 14" fill="none" xmlns="http://www.w3.org/2000/svg">
<path id="linkedin" d="M3.19931 1.5532C3.20867 1.8717 3.12272 2.18574 2.95247 2.45508C2.78222 2.72442 2.53543 2.93679 2.24372 3.06499C1.95201 3.19318 1.62867 3.23136 1.31513 3.17463C1.00158 3.1179 0.712119 2.96884 0.483824 2.74656C0.255529 2.52427 0.098802 2.23889 0.0337256 1.92697C-0.0313509 1.61505 -0.00181291 1.29081 0.118555 0.99578C0.238922 0.700754 0.444637 0.448386 0.70934 0.271014C0.974042 0.093641 1.28568 -0.00065764 1.60431 0.000200626C1.81148 -0.00310628 2.01727 0.0344965 2.20988 0.110855C2.4025 0.187213 2.57815 0.300826 2.72678 0.445184C2.87541 0.589542 2.9941 0.761809 3.07604 0.952114C3.15799 1.14242 3.20157 1.34702 3.20431 1.5542L3.19931 1.5532ZM3.24731 4.2532H0.0553103V13.9732H3.24731V4.2532ZM8.29031 4.2532H5.11431V13.9732H8.25831V8.8732C8.25831 6.0312 12.0643 5.7672 12.0643 8.8732V13.9732H15.2163V7.8182C15.2163 3.0282 9.58231 3.2062 8.25831 5.5592L8.29031 4.2532Z" fill="#10385B"/>
</svg>
