<svg width="17" height="14" viewBox="0 0 17 14" fill="none" xmlns="http://www.w3.org/2000/svg">
<path id="twitter" d="M16.309 1.5745C15.6981 1.84455 15.0503 2.02184 14.387 2.1005C15.086 1.68248 15.6091 1.02463 15.859 0.249502C15.2022 0.63955 14.4835 0.91419 13.734 1.0615C13.2305 0.522725 12.5632 0.165351 11.8357 0.0449258C11.1082 -0.0754994 10.3613 0.0477693 9.71107 0.395573C9.06085 0.743377 8.54373 1.29623 8.24009 1.96821C7.93645 2.6402 7.8633 3.39366 8.032 4.1115C6.7007 4.04484 5.39833 3.69875 4.20956 3.09575C3.02078 2.49275 1.97221 1.64632 1.132 0.611502C0.703109 1.34921 0.571809 2.22275 0.764881 3.05395C0.957953 3.88514 1.46085 4.61137 2.171 5.0845C1.63991 5.06785 1.12049 4.92453 0.656 4.6665V4.7115C0.656114 5.4841 0.923428 6.23288 1.41262 6.83087C1.9018 7.42887 2.58275 7.83928 3.34 7.9925C2.84692 8.12626 2.32988 8.1461 1.828 8.0505C2.04152 8.71555 2.45769 9.29717 3.01824 9.7139C3.57878 10.1306 4.25563 10.3616 4.954 10.3745C4.25984 10.9197 3.46501 11.3228 2.61496 11.5606C1.76491 11.7984 0.87632 11.8664 0 11.7605C1.5301 12.7428 3.31075 13.2635 5.129 13.2605C6.38173 13.2691 7.62368 13.0288 8.78273 12.5534C9.94177 12.0779 10.9948 11.377 11.8806 10.4911C12.7665 9.6053 13.4674 8.55227 13.9429 7.39323C14.4183 6.23419 14.6586 4.99223 14.65 3.7395C14.65 3.5955 14.65 3.4495 14.64 3.3075C15.2952 2.83402 15.8607 2.24751 16.31 1.5755L16.309 1.5745Z" fill="#10385B"/>
</svg>
