<svg width="37" height="36" viewBox="0 0 37 36" fill="none" xmlns="http://www.w3.org/2000/svg">
<g id="Pride">
<g id="Group 14041">
<path id="Vector 218" d="M32.5 1V2.75" stroke="#04BBF2" stroke-width="2" stroke-miterlimit="10" stroke-linecap="round" stroke-linejoin="round"/>
<path id="Vector 220" d="M32.5 6.25L32.5 8" stroke="#04BBF2" stroke-width="2" stroke-miterlimit="10" stroke-linecap="round" stroke-linejoin="round"/>
<path id="Vector 219" d="M29 4.5L30.75 4.5" stroke="#04BBF2" stroke-width="2" stroke-miterlimit="10" stroke-linecap="round" stroke-linejoin="round"/>
<path id="Vector 221" d="M34.25 4.5L36 4.5" stroke="#04BBF2" stroke-width="2" stroke-miterlimit="10" stroke-linecap="round" stroke-linejoin="round"/>
</g>
<g id="Group 14042">
<path id="Vector 218_2" d="M4.5 22V23.75" stroke="#04BBF2" stroke-width="2" stroke-miterlimit="10" stroke-linecap="round" stroke-linejoin="round"/>
<path id="Vector 220_2" d="M4.5 27.25L4.5 29" stroke="#04BBF2" stroke-width="2" stroke-miterlimit="10" stroke-linecap="round" stroke-linejoin="round"/>
<path id="Vector 219_2" d="M1 25.5L2.75 25.5" stroke="#04BBF2" stroke-width="2" stroke-miterlimit="10" stroke-linecap="round" stroke-linejoin="round"/>
<path id="Vector 221_2" d="M6.25 25.5L8 25.5" stroke="#04BBF2" stroke-width="2" stroke-miterlimit="10" stroke-linecap="round" stroke-linejoin="round"/>
</g>
<g id="Group 14040">
<path id="Vector" d="M14.4858 11.7116V14.593C14.4858 15.8314 13.4813 16.8359 12.2429 16.8359C11.9003 16.8359 11.5755 16.7588 11.2866 16.6226C10.5256 16.2635 10 15.4902 10 14.593V11.7116C10 10.4732 11.0031 9.46875 12.2429 9.46875C12.8621 9.46875 13.4221 9.72056 13.8294 10.1251C14.234 10.5324 14.4858 11.0924 14.4858 11.7116V11.7116Z" stroke="white" stroke-width="1.5" stroke-miterlimit="10" stroke-linecap="round" stroke-linejoin="round"/>
<path id="Vector_2" d="M18.9721 10.7136V15.0466C18.9721 16.285 17.9676 17.2895 16.7292 17.2895C15.4908 17.2895 14.4863 16.285 14.4863 15.0466V10.7136C14.4863 9.47519 15.4908 8.4707 16.7292 8.4707C17.3484 8.4707 17.9085 8.72114 18.3158 9.12843C18.7203 9.53298 18.9721 10.0944 18.9721 10.7136Z" stroke="white" stroke-width="1.5" stroke-miterlimit="10" stroke-linecap="round" stroke-linejoin="round"/>
<path id="Vector_3" d="M23.4573 10.2429V15.2406H20.7218C20.0559 15.4181 19.511 15.8529 19.1917 16.4143C19.05 16.1212 18.9716 15.7937 18.9716 15.447V10.2429C18.9716 9.00449 19.976 8 21.2144 8C21.835 8 22.3951 8.25181 22.801 8.65636C23.2069 9.06365 23.4573 9.62369 23.4573 10.2429V10.2429Z" stroke="white" stroke-width="1.5" stroke-miterlimit="10" stroke-linecap="round" stroke-linejoin="round"/>
<path id="Vector_4" d="M27.9447 11.0431V15.0487C27.9447 15.3252 27.8951 15.5908 27.803 15.8344C27.364 15.4642 26.7957 15.2413 26.1751 15.2413H23.4658C23.4603 15.178 23.4575 15.1133 23.4575 15.0487V11.0431C23.4575 9.80331 24.462 8.79883 25.7018 8.79883C26.321 8.79883 26.8824 9.05064 27.2869 9.45656C27.6942 9.86248 27.9447 10.4239 27.9447 11.0431Z" stroke="white" stroke-width="1.5" stroke-miterlimit="10" stroke-linecap="round" stroke-linejoin="round"/>
<path id="Vector_5" d="M25.004 34.9999V29.1216C25.8062 28.5368 27.5744 27.0673 28.3436 24.5519C28.6174 23.6561 28.7014 22.836 28.7069 22.1714V17.771H28.7055C28.7055 16.9935 28.3546 16.2972 27.8015 15.8335C27.3625 15.4634 26.7942 15.2405 26.1736 15.2405H21.2696C20.4687 15.2405 19.6982 15.623 19.2633 16.2959C19.2386 16.3344 19.2152 16.3743 19.1918 16.4142C19.0501 16.1211 18.9716 15.7936 18.9716 15.4469V15.0478C18.9716 16.322 17.908 17.3485 16.62 17.288C15.4133 17.2316 14.4858 16.1927 14.4858 14.9845V14.5938C14.4858 15.8322 13.4814 16.8366 12.2429 16.8366C11.9003 16.8366 11.5756 16.7596 11.2866 16.6234V23.5323C11.3004 24.0813 11.3733 24.7446 11.5783 25.4725C12.093 27.2998 13.1566 28.5093 13.791 29.1216V34.9999" stroke="white" stroke-width="1.5" stroke-miterlimit="10" stroke-linecap="round" stroke-linejoin="round"/>
<path id="Vector_6" d="M18.1085 26.1611C18.1058 25.7511 18.1305 23.5412 19.9056 21.7524C21.671 19.9718 23.8644 19.9209 24.2785 19.9196H20.7216C19.5698 19.6044 18.8062 18.5298 18.8901 17.3973C18.9162 17.0464 19.0222 16.7107 19.1914 16.4121" stroke="white" stroke-width="1.5" stroke-miterlimit="10" stroke-linecap="round" stroke-linejoin="round"/>
</g>
</g>
</svg>
