<svg width="152" height="16" viewBox="0 0 152 16" fill="none" xmlns="http://www.w3.org/2000/svg">
<g id="Group 220">
<path id="Path 30" d="M3.7846 1.77849C3.79567 2.14319 3.69399 2.50278 3.4926 2.81118C3.29121 3.11959 2.99927 3.36277 2.65419 3.50956C2.30912 3.65635 1.92662 3.70007 1.55572 3.63511C1.18481 3.57015 0.842394 3.39947 0.572335 3.14494C0.302275 2.89042 0.116877 2.56364 0.0398954 2.20648C-0.0370862 1.84931 -0.00214457 1.47804 0.140243 1.14022C0.282631 0.802398 0.525979 0.513424 0.839107 0.310324C1.15223 0.107224 1.52088 -0.00075303 1.89781 0.000229727C2.14288 -0.00355685 2.38631 0.0395002 2.61416 0.126934C2.84201 0.214368 3.0498 0.34446 3.22562 0.509758C3.40144 0.675055 3.54184 0.872309 3.63878 1.09022C3.73571 1.30813 3.78727 1.54241 3.79051 1.77964L3.7846 1.77849ZM3.84138 4.87012H0.0654288V16H3.84138V4.87012ZM9.80695 4.87012H6.04993V16H9.7691V10.1602C9.7691 6.90602 14.2714 6.60373 14.2714 10.1602V16H18V8.95222C18 3.46744 11.3353 3.67126 9.7691 6.36556L9.80695 4.87012Z" fill="white"/>
<path id="Path 33" d="M53.3359 9.20402H55.2388L56 6.00601H53.3359V4.4094C53.3359 3.58554 53.3359 2.81278 54.8582 2.81278H56V0.121694C55.2776 0.045919 54.552 0.00861675 53.8261 0.00993095C53.3481 -0.0280949 52.868 0.0433685 52.419 0.219365C51.97 0.395362 51.5629 0.671679 51.2259 1.02916C50.8888 1.38663 50.63 1.81671 50.4673 2.28957C50.3046 2.76243 50.2419 3.26675 50.2835 3.76756V6.00281H48V9.20083H50.2835V16H53.3359V9.20402Z" fill="white"/>
<path id="Path 32" d="M105.999 1.89975C105.25 2.22557 104.455 2.43949 103.642 2.5344C104.499 2.03004 105.141 1.23629 105.447 0.301042C104.642 0.771663 103.76 1.10303 102.841 1.28078C102.224 0.630704 101.406 0.199508 100.513 0.0542062C99.6213 -0.0910953 98.7054 0.057637 97.9081 0.477287C97.1108 0.896936 96.4767 1.564 96.1043 2.37479C95.732 3.18558 95.6423 4.09469 95.8492 4.96082C94.2167 4.88038 92.6197 4.46281 91.1619 3.73524C89.7042 3.00767 88.4184 1.98641 87.3881 0.73782C86.8622 1.62792 86.7012 2.68191 86.9379 3.6848C87.1747 4.6877 87.7914 5.56394 88.6622 6.13481C88.0109 6.11471 87.374 5.9418 86.8044 5.63046V5.68476C86.8046 6.61695 87.1323 7.5204 87.7322 8.24193C88.3321 8.96345 89.1671 9.45864 90.0956 9.64352C89.491 9.80491 88.857 9.82884 88.2416 9.7135C88.5034 10.5159 89.0137 11.2177 89.7011 11.7205C90.3885 12.2233 91.2184 12.502 92.0748 12.5176C91.2236 13.1754 90.2489 13.6618 89.2066 13.9487C88.1642 14.2357 87.0746 14.3176 86 14.1899C87.8763 15.3751 90.0598 16.0034 92.2894 15.9997C93.8255 16.0102 95.3485 15.7201 96.7697 15.1465C98.191 14.5729 99.4823 13.7271 100.569 12.6583C101.655 11.5895 102.514 10.3189 103.097 8.92045C103.68 7.52199 103.975 6.02348 103.964 4.51197C103.964 4.33823 103.964 4.16207 103.952 3.99073C104.756 3.41945 105.449 2.71178 106 1.90095L105.999 1.89975Z" fill="white"/>
<path id="Path 31" d="M144 0C146.171 0 146.445 0.00800006 147.297 0.0480001C147.961 0.0618388 148.618 0.187803 149.24 0.420571C149.774 0.620686 150.258 0.93551 150.657 1.34286C151.064 1.74266 151.379 2.22625 151.579 2.76C151.812 3.38215 151.937 4.03897 151.951 4.70286C151.99 5.55543 152 5.82857 152 8C152 10.1714 151.992 10.4446 151.952 11.2971C151.938 11.9611 151.812 12.6179 151.579 13.24C151.374 13.7715 151.06 14.2543 150.657 14.6572C150.254 15.0601 149.772 15.3742 149.24 15.5794C148.618 15.8119 147.961 15.9379 147.297 15.952C146.445 15.9897 146.171 16 144 16C141.829 16 141.555 15.992 140.703 15.952C140.039 15.9378 139.382 15.8118 138.76 15.5794C138.228 15.3742 137.746 15.0601 137.343 14.6572C136.94 14.2543 136.626 13.7715 136.421 13.24C136.188 12.618 136.062 11.9611 136.048 11.2971C136.01 10.4446 136 10.1714 136 8C136 5.82857 136.008 5.55543 136.048 4.70286C136.062 4.03886 136.188 3.38198 136.421 2.76C136.626 2.22845 136.94 1.74572 137.343 1.34282C137.746 0.939924 138.228 0.625777 138.76 0.420571C139.382 0.188109 140.039 0.062528 140.703 0.0491428C141.555 0.0102857 141.829 0 144 0ZM144 4C143.209 4 142.436 4.2346 141.778 4.67412C141.12 5.11365 140.607 5.73836 140.304 6.46927C140.002 7.20017 139.923 8.00444 140.077 8.78036C140.231 9.55629 140.612 10.269 141.172 10.8284C141.731 11.3878 142.444 11.7688 143.22 11.9231C143.996 12.0775 144.8 11.9983 145.531 11.6955C146.262 11.3928 146.886 10.8801 147.326 10.2223C147.765 9.56449 148 8.79113 148 8C148 6.93913 147.579 5.92172 146.828 5.17157C146.078 4.42143 145.061 4 144 4ZM149.2 3.8C149.2 3.60222 149.141 3.40888 149.031 3.24443C148.922 3.07998 148.765 2.95181 148.583 2.87612C148.4 2.80043 148.199 2.78063 148.005 2.81922C147.811 2.8578 147.633 2.95304 147.493 3.09289C147.353 3.23275 147.258 3.41093 147.219 3.60491C147.181 3.79889 147.2 3.99996 147.276 4.18268C147.352 4.36541 147.48 4.52159 147.644 4.63147C147.809 4.74135 148.002 4.8 148.2 4.8C148.465 4.8 148.72 4.69464 148.907 4.50711C149.095 4.31957 149.2 4.06522 149.2 3.8ZM144 5.6C144.475 5.6 144.939 5.74076 145.333 6.00447C145.728 6.26819 146.036 6.64302 146.217 7.08156C146.399 7.5201 146.446 8.00266 146.354 8.46822C146.261 8.93377 146.033 9.36141 145.697 9.69706C145.361 10.0327 144.934 10.2613 144.468 10.3539C144.003 10.4465 143.52 10.399 143.082 10.2173C142.643 10.0357 142.268 9.72805 142.004 9.33337C141.741 8.93869 141.6 8.47468 141.6 8C141.6 7.36348 141.853 6.75303 142.303 6.30294C142.753 5.85286 143.363 5.6 144 5.6Z" fill="white"/>
</g>
</svg>
