<svg width="16" height="16" viewBox="0 0 16 16" fill="none" xmlns="http://www.w3.org/2000/svg">
<g id="Group 7">
<path id="Vector" d="M2.68741 2.96758C4.00163 1.70262 5.76146 0.996672 7.5923 1.00001C9.4631 1.00001 11.2573 1.73751 12.5801 3.05026C13.903 4.36302 14.6461 6.14349 14.6461 8.00001C14.6461 9.85652 13.903 11.637 12.5801 12.9498C11.2573 14.2625 9.4631 15 7.5923 15C5.72151 15 3.92734 14.2625 2.60449 12.9498C1.28164 11.637 0.538457 9.85652 0.538457 8.00001C0.537334 7.09125 0.715062 6.19102 1.06161 5.34985" stroke="white" stroke-linecap="round" stroke-linejoin="round"/>
<g id="Group 6">
<path id="Vector 5" d="M8.77356 6L10.6153 8.19328L8.77356 10.021" stroke="white" stroke-linecap="round" stroke-linejoin="round"/>
<path id="Vector 4" d="M4.56921 8.19336H10.0946" stroke="white" stroke-linecap="round" stroke-linejoin="round"/>
</g>
</g>
</svg>
