<svg width="37" height="33" viewBox="0 0 37 33" fill="none" xmlns="http://www.w3.org/2000/svg">
<g id="Group 13112">
<path id="Vector" d="M34.9358 19.0117C33.9283 17.66 32.5365 16.6436 30.9422 16.0953C32.6515 15.3513 33.9135 14.2757 34.7282 12.8684C35.5622 11.379 35.9837 9.69389 35.9491 7.98715C35.9764 6.7791 35.6987 5.58368 35.1412 4.5116C34.6163 3.53502 33.8813 2.68703 32.9892 2.02874C32.0634 1.35199 31.0271 0.840848 29.9267 0.518023C28.793 0.174711 27.615 0.000167502 26.4306 0H2.75215C2.02225 6.04742e-05 1.32227 0.290037 0.806153 0.806152C0.290036 1.32227 6.05146e-05 2.02225 0 2.75214V5.29662H24.322C25.8944 5.29662 27.0598 5.65565 27.8181 6.37374C28.5765 7.09184 28.9553 8.08453 28.9546 9.35181C28.9546 10.6206 28.5758 11.6209 27.8181 12.3527C27.0575 13.083 25.8921 13.4481 24.322 13.4481H13.7972V18.7447H24.322C25.8944 18.7447 27.0598 19.1037 27.8181 19.8218C28.5765 20.5399 28.9553 21.5326 28.9546 22.7999C28.9546 24.0961 28.5758 25.1032 27.8181 25.8213C27.0575 26.5402 25.8921 26.8991 24.322 26.8985H13.8087V32.1951H26.4329C27.678 32.1981 28.9199 32.0664 30.1367 31.8026C31.2791 31.5652 32.3624 31.1013 33.3224 30.4379C34.2656 29.767 35.0264 28.8711 35.536 27.8318C36.0883 26.741 36.3644 25.3688 36.3644 23.715C36.3644 21.8894 35.8881 20.3216 34.9358 19.0117Z" fill="white"/>
<path id="Vector_2" fill-rule="evenodd" clip-rule="evenodd" d="M4.97942 6.83008H0V12.1267H4.97942V6.83008ZM6.57686 12.1267V6.83008H12.1428V12.1267H6.57686Z" fill="white"/>
<path id="Vector_3" fill-rule="evenodd" clip-rule="evenodd" d="M4.97942 13.4473H0V18.7439H4.97942V13.4473ZM6.57686 18.7439V13.4473H12.1428V18.7439H6.57686Z" fill="white"/>
<path id="Vector_4" fill-rule="evenodd" clip-rule="evenodd" d="M4.97942 20.168H0V25.4646H4.97942V20.168ZM6.57686 25.4646V20.168H12.1428V25.4646H6.57686Z" fill="white"/>
<path id="Vector_5" fill-rule="evenodd" clip-rule="evenodd" d="M4.97942 26.8944H0V32.1911H4.97942V26.8944ZM6.57686 32.1911V26.8944H12.1428V32.1911H6.57686Z" fill="white"/>
</g>
</svg>
