<svg width="47" height="42" viewBox="0 0 47 42" fill="none" xmlns="http://www.w3.org/2000/svg">
<g id="Group 14087">
<g id="Group 13262">
<path id="Vector" d="M19.3945 19.0945V4.02484C19.3945 2.35431 20.7488 1 22.4194 1H42.9761C44.6466 1 46.0009 2.35431 46.0009 4.02484V20.161C46.0009 21.8315 44.6466 23.1858 42.9761 23.1858H23.6516" stroke="#10385B" stroke-width="2" stroke-linecap="round" stroke-linejoin="round"/>
<path id="Vector_2" d="M24.3792 40.1369L31.4277 23.1895" stroke="#10385B" stroke-width="2" stroke-linecap="round" stroke-linejoin="round"/>
<path id="Vector_3" d="M41.2414 40.1369L34.1907 23.1895" stroke="#10385B" stroke-width="2" stroke-linecap="round" stroke-linejoin="round"/>
<path id="Vector_4" d="M24.3792 6.97656H40.5982" stroke="#10385B" stroke-width="2" stroke-linecap="round" stroke-linejoin="round"/>
<path id="Vector_5" d="M31.428 12.0938H40.5985" stroke="#10385B" stroke-width="2" stroke-linecap="round" stroke-linejoin="round"/>
<path id="Vector_6" d="M31.428 17.6406H40.5985" stroke="#10385B" stroke-width="2" stroke-linecap="round" stroke-linejoin="round"/>
</g>
<g id="Group 13263">
<path id="Vector_7" d="M8.88371 15.2056C11.4829 15.2056 13.59 13.0985 13.59 10.4993C13.59 7.90007 11.4829 5.793 8.88371 5.793C6.2845 5.793 4.17743 7.90007 4.17743 10.4993C4.17743 13.0985 6.2845 15.2056 8.88371 15.2056Z" stroke="#04BBF2" stroke-width="2" stroke-linecap="round" stroke-linejoin="round"/>
<path id="Vector_8" d="M22.3222 21.7602L15.5332 18.0462C13.9913 17.2023 12.2641 16.7617 10.5063 16.7617H6.89485C5.91346 16.7617 4.99096 17.0016 4.1775 17.4269C2.28888 18.4061 1 20.3798 1 22.6566V27.1033C1 28.8589 2.42192 30.283 4.1775 30.2852V38.3042C4.1775 38.9759 4.72272 39.5211 5.39442 39.5211H11.985C12.6588 39.5211 13.2041 38.9759 13.2041 38.302V21.3524L20.3943 25.2867C21.0966 25.6705 21.9776 25.4132 22.3615 24.7109L22.898 23.7295C23.2818 23.0273 23.0244 22.1462 22.3222 21.7624V21.7602Z" stroke="#04BBF2" stroke-width="2" stroke-linecap="round" stroke-linejoin="round"/>
<path id="Vector_9" d="M22.3218 21.7607L26.4327 14.1016" stroke="#04BBF2" stroke-width="2" stroke-linecap="round" stroke-linejoin="round"/>
</g>
</g>
</svg>
