<svg width="53" height="28" viewBox="0 0 53 28" fill="none" xmlns="http://www.w3.org/2000/svg">
<g id="Group 13274">
<path id="Vector" d="M23.8522 14C23.8522 16.8087 24.7478 19.4087 26.2609 21.5304C24.0522 24.6261 20.5131 26.713 16.4783 26.9652V27H1.36523L6.81741 23.5043C4.26958 21.1304 2.66958 17.7565 2.66958 14C2.66958 6.82609 8.48697 1 15.6696 1C20.0435 1 23.9131 3.15652 26.2609 6.46957C24.7478 8.5913 23.8522 11.1913 23.8522 14Z" stroke="#10385B" stroke-width="2" stroke-miterlimit="10" stroke-linecap="round" stroke-linejoin="round"/>
<path id="Vector_2" d="M45.7045 4.49565C48.2523 6.86957 49.8523 10.2435 49.8523 14C49.8523 21.1826 44.0349 27 36.8523 27C32.4784 27 28.6088 24.8435 26.261 21.5304C24.748 19.4087 23.8523 16.8087 23.8523 14C23.8523 11.1913 24.748 8.5913 26.261 6.46957C28.4697 3.37391 32.0088 1.28696 36.0436 1.04348V1H51.1567L45.7045 4.49565Z" stroke="#04BBF2" stroke-width="2" stroke-miterlimit="10" stroke-linecap="round" stroke-linejoin="round"/>
<g id="Group 13180">
<path id="Vector_3" d="M32.8989 10.4142C33.5511 8.84901 35.2815 8.02292 36.8641 8.49248C38.4902 8.97074 39.5511 10.6925 39.1337 12.3447C38.7598 13.7881 37.3511 14.8142 35.7685 14.7273V17.9012" stroke="#04BBF2" stroke-width="2" stroke-miterlimit="10" stroke-linecap="round" stroke-linejoin="round"/>
<path id="Vector_4" d="M35.846 21.3083C36.6895 21.3083 36.6895 20.0039 35.846 20.0039C35.0025 20.0039 35.0025 21.3083 35.846 21.3083Z" stroke="#04BBF2" stroke-width="2" stroke-miterlimit="10" stroke-linecap="round" stroke-linejoin="round"/>
</g>
<path id="Vector_5" d="M10.7739 11.1562H19.2696" stroke="#10385B" stroke-width="2" stroke-miterlimit="10" stroke-linecap="round"/>
<path id="Vector_6" d="M10.7739 15.2344H19.2696" stroke="#10385B" stroke-width="2" stroke-miterlimit="10" stroke-linecap="round"/>
</g>
</svg>
