<svg width="40" height="50" viewBox="0 0 40 50" fill="none" xmlns="http://www.w3.org/2000/svg">
<g id="Group 326">
<g id="Group">
<path id="Vector" d="M31.8475 3.45312V35.3557C28.072 35.3557 25.0517 38.3761 25.0517 42.1515H1.45508V3.45312H10.3274V5.90717H22.9752V3.45312H31.8475Z" stroke="#10385B" stroke-width="1.5" stroke-miterlimit="10" stroke-linecap="round" stroke-linejoin="round"/>
<path id="Vector_2" d="M22.9741 0.999954H10.3263V6.09682H22.9741V0.999954Z" stroke="#10385B" stroke-width="1.5" stroke-miterlimit="10" stroke-linecap="round" stroke-linejoin="round"/>
<path id="Vector_3" d="M10.3273 12.3262H6.17429V16.4792H10.3273V12.3262Z" stroke="#10385B" stroke-width="1.5" stroke-miterlimit="10" stroke-linecap="round" stroke-linejoin="round"/>
<path id="Vector_4" d="M10.3273 21.3867H6.17432V25.5397H10.3273V21.3867Z" stroke="#10385B" stroke-width="1.5" stroke-miterlimit="10" stroke-linecap="round" stroke-linejoin="round"/>
<path id="Vector_5" d="M10.3273 30.4492H6.17432V34.6022H10.3273V30.4492Z" stroke="#10385B" stroke-width="1.5" stroke-miterlimit="10" stroke-linecap="round" stroke-linejoin="round"/>
<path id="Vector_6" d="M14.8564 14.2148H25.994" stroke="#10385B" stroke-width="1.5" stroke-miterlimit="10" stroke-linecap="round" stroke-linejoin="round"/>
<path id="Vector_7" d="M14.8564 23.0859H25.994" stroke="#10385B" stroke-width="1.5" stroke-miterlimit="10" stroke-linecap="round" stroke-linejoin="round"/>
<path id="Vector_8" d="M14.8564 32.5254H25.994" stroke="#10385B" stroke-width="1.5" stroke-miterlimit="10" stroke-linecap="round" stroke-linejoin="round"/>
<path id="Vector_9" d="M38.4559 42.1532C38.4559 45.9287 35.4355 48.949 31.6601 48.949C27.8846 48.949 24.8643 45.9287 24.8643 42.1532C24.8643 38.3778 27.8846 35.3574 31.6601 35.3574C35.4355 35.3574 38.4559 38.3778 38.4559 42.1532Z" stroke="#04BBF2" stroke-width="1.5" stroke-miterlimit="10" stroke-linecap="round" stroke-linejoin="round"/>
<path id="Vector_10" d="M29.0166 42.7177L30.338 43.8504L33.9247 40.2637" stroke="#04BBF2" stroke-width="1.5" stroke-miterlimit="10" stroke-linecap="round" stroke-linejoin="round"/>
</g>
</g>
</svg>
