<svg width="151" height="225" viewBox="0 0 151 225" fill="none" xmlns="http://www.w3.org/2000/svg">
<g id="Group 13914">
<path id="Vector" d="M150.197 0.167969V132.129H0.0102539V0.167969C0.328155 0.167969 0.635459 0.178565 0.95336 0.178565C50.387 0.178565 99.8312 0.178565 149.265 0.178565C149.583 0.178565 149.89 0.178565 150.208 0.167969H150.197ZM75.4482 112.768C75.9356 109.918 78.3941 109.579 81.0008 109.441V104.535C79.867 104.821 78.7967 104.959 77.8854 105.372C76.9741 105.785 76.2323 106.474 75.268 107.152V105.096H70.4359V121.754C72.1102 121.68 73.7103 121.617 75.3104 121.553C75.374 121.373 75.48 121.203 75.48 121.023C75.48 118.268 75.4694 115.524 75.4588 112.768H75.4482ZM40.9029 62.0845C41.0301 61.8725 41.2632 61.6606 41.2632 61.4487C41.2844 54.1687 41.2844 46.8994 41.2632 39.6195C41.2632 39.4075 41.0301 39.1956 40.9029 38.9837H36.145V62.0739H40.9029V62.0845ZM98.7715 16.3279V20.503H101.951C101.951 21.2448 101.94 21.9018 101.951 22.5588C102.004 24.8159 101.961 27.073 102.173 29.3089C102.332 30.962 103.476 32.1382 105.299 32.6786C107.175 33.2403 109.114 33.0601 111.064 32.9542V29.044C110.343 29.044 109.686 29.0652 109.029 29.044C107.397 28.9804 106.846 28.4823 106.836 27.0624C106.825 25.1868 106.836 23.3218 106.836 21.4461C106.836 21.1282 106.836 20.8103 106.836 20.4395H111.085V16.275H106.804V11.6866C105.151 12.1104 103.604 12.5131 102.056 12.9052C101.961 13.1383 101.802 13.3715 101.792 13.6152C101.749 14.2404 101.749 14.8762 101.792 15.5014C101.813 15.9888 101.622 16.1796 101.05 16.1796C100.297 16.1796 99.5345 16.2749 98.7821 16.3279H98.7715ZM21.5957 115.269C21.5957 115.269 21.4898 115.269 21.4368 115.259C19.7943 109.664 18.1518 104.069 16.5093 98.4841H10.999C11.052 98.6643 11.0732 98.802 11.1156 98.9292C12.313 102.702 13.4999 106.485 14.6973 110.257C15.8311 113.818 16.9862 117.378 18.0882 120.949C18.2684 121.532 18.5651 121.733 19.2433 121.712C20.6526 121.67 22.062 121.68 23.4714 121.712C24.033 121.712 24.3509 121.649 24.5204 121.066C25.5695 117.654 26.6927 114.252 27.7842 110.85C28.2293 109.484 28.6849 108.117 29.13 106.76C30.1155 109.24 30.9102 111.719 31.7156 114.188C32.5315 116.689 33.3475 119.179 34.1634 121.67H40.1294C42.5878 113.945 45.0356 106.241 47.5259 98.4417C45.9681 98.4417 44.5058 98.5053 43.0435 98.4205C42.1639 98.3676 41.8778 98.6855 41.6765 99.3637C40.1929 104.524 38.667 109.664 37.1517 114.814C37.1093 114.941 37.0139 115.068 36.8868 115.291C35.0535 109.6 33.2627 104.037 31.4719 98.4841H26.9365C25.135 104.1 23.3548 109.685 21.5639 115.269H21.5957ZM35.6364 14.6643C32.468 10.0441 25.8344 8.15788 19.9638 9.74738C14.4748 11.2309 11.2428 14.6007 10.4162 19.6023C9.8228 23.2264 10.8083 26.5326 13.6376 29.3195C16.7742 32.4137 20.7798 33.5582 25.3999 33.3674C33.0084 33.0495 38.3173 27.8465 37.3106 20.5242H24.1389V24.5298H31.9381C31.6096 26.7975 28.9181 28.5141 25.3364 28.8426C20.9493 29.2347 17.2405 27.2849 15.9265 23.894C14.5807 20.4183 16.1278 16.5823 19.5718 14.749C22.3905 13.2549 27.9855 13.0006 31.2599 16.9108C32.7011 16.1796 34.1422 15.4378 35.647 14.6748L35.6364 14.6643ZM18.9678 54.4549C20.6208 54.4549 22.1468 54.4549 23.6727 54.4549C27.9538 54.4549 31.5248 51.9434 32.4468 48.2982C33.57 43.8899 30.2426 39.4711 25.1456 38.9837C21.9242 38.6764 18.6499 38.8459 15.4073 38.8035C14.888 38.8035 14.3688 38.8035 13.8178 38.8035V62.0315H18.9678V54.4549V54.4549ZM90.273 32.8588H95.1156V16.3067C93.6003 16.3067 92.1592 16.3067 90.718 16.3067C90.6015 16.3067 90.4849 16.3491 90.2624 16.3809V18.0446C89.9868 17.8645 89.8279 17.7903 89.7007 17.6843C87.3907 15.7875 83.703 15.2683 80.7889 16.4127C74.3355 18.9453 73.403 26.257 77.186 30.4533C80.4498 34.088 86.9668 34.3105 89.8597 31.4388C89.9233 31.3752 90.0716 31.3858 90.2518 31.3541V32.8694L90.273 32.8588ZM60.4538 47.2703C57.2218 44.1231 51.4572 44.3138 48.1405 47.2597C44.6859 50.3327 44.1667 55.5357 46.996 59.0856C49.3697 62.0739 53.4918 63.3243 57.3066 62.1057C58.4299 61.7454 59.4154 61.0566 60.5068 60.495V62.0421H65.3071V45.5112H60.4538V47.2809V47.2703ZM72.5553 26.4054C73.0639 24.7735 72.8838 23.2264 72.3221 21.7323C70.4783 16.8472 65.3707 14.8126 59.8922 16.2961C56.2469 17.2816 54.0534 19.6553 53.4388 22.9509C52.8348 26.1935 53.6296 29.2029 56.6814 31.3541C60.2631 33.8761 64.2898 34.0032 68.412 32.4985C69.8637 31.9687 70.9976 31.0467 71.8559 29.8069C70.4995 29.1287 69.2385 28.4929 67.9669 27.8465C65.9005 29.754 63.4633 29.8069 60.9307 29.0228C59.6591 28.6307 58.8113 27.73 58.5146 26.416H72.5553V26.4054ZM95.9422 55.4933H109.983C110.608 51.8481 109.57 48.7644 106.221 46.5285C101.283 43.233 92.2227 45.0238 90.8346 52.0176C90.061 55.9384 91.7671 59.4353 95.3488 61.3003C97.786 62.5613 100.456 62.7097 103.148 62.36C105.681 62.0315 107.736 60.9082 109.241 58.9267C107.916 58.2485 106.634 57.6021 105.352 56.9451C102.724 59.8274 96.2071 58.6406 95.9528 55.4827L95.9422 55.4933ZM101.792 105.043C99.81 105.043 98.0615 105.022 96.3131 105.065C96.0376 105.065 95.6879 105.277 95.4971 105.489C94.4057 106.686 93.3566 107.905 92.2757 109.113C91.4068 110.088 90.5273 111.052 89.6584 112.016C89.5948 111.984 89.5206 111.963 89.457 111.931V98.4947H84.5719V121.649H89.51V114.337C89.8067 114.623 89.9233 114.739 90.0398 114.856C91.9472 116.954 93.8546 119.052 95.7726 121.14C95.9634 121.341 96.2177 121.659 96.4508 121.659C98.2311 121.701 100.022 121.68 102.004 121.68C99.3013 118.766 96.7475 116.022 94.1937 113.256C96.7157 110.533 99.1848 107.862 101.792 105.033V105.043ZM67.0026 113.383C66.992 108.434 62.658 104.598 57.0629 104.577C51.3725 104.556 46.996 108.413 46.996 113.447C46.996 118.332 51.4572 122.2 57.0417 122.178C62.6474 122.157 67.0132 118.3 67.0026 113.383V113.383ZM47.7802 82.9388C47.8014 77.9477 43.4885 74.1223 37.8087 74.1117C32.2242 74.1011 27.8266 77.8947 27.8054 82.748C27.7842 87.845 32.0653 91.6705 37.7769 91.6599C43.4461 91.6599 47.7484 87.898 47.7696 82.9388H47.7802ZM17.3782 73.317V91.13H22.5706V73.3064H29.6386V69.1313H10.342V73.317H17.3782V73.317ZM87.8993 49.3261C86.437 46.253 81.785 44.3986 77.4933 45.1192C72.8838 45.8927 69.5988 49.2943 69.4928 53.3952C69.3763 57.867 72.4175 61.4805 77.2602 62.3388C81.8062 63.1441 85.9601 61.5229 88.0053 58.1637C86.6171 57.4643 85.2289 56.7649 83.8514 56.0761C81.7426 58.3968 78.3835 58.8949 76.2429 57.2736C73.9964 55.5675 73.7951 52.4415 75.8191 50.5659C78.0338 48.5207 81.0538 48.828 83.8408 51.4242C85.1865 50.7248 86.5429 50.0254 87.8887 49.3367L87.8993 49.3261ZM40.585 16.3491V32.8482H45.1416C45.1416 32.4031 45.1416 32.0216 45.1416 31.6402C45.1628 29.2453 45.1416 26.8505 45.237 24.4662C45.3112 22.5482 46.5722 21.2766 48.6703 20.8739C49.2955 20.7574 49.9525 20.7891 50.5883 20.7468V15.8193C49.4757 16.116 48.4054 16.2432 47.5365 16.6776C46.6463 17.1227 45.9681 17.8856 45.1098 18.5744V16.3491H40.585V16.3491ZM103.646 118.607C103.625 120.727 105.458 122.369 107.874 122.401C110.301 122.422 112.229 120.811 112.261 118.734C112.293 116.594 110.491 115.015 108.075 114.909C105.553 114.803 103.646 116.668 103.646 118.607V118.607Z" fill="#ED2832"/>
<path id="Vector_2" d="M150.198 132.461V189.609C150.081 189.651 149.964 189.673 149.859 189.725C144.783 192.12 139.707 194.515 134.631 196.921C115.048 206.193 95.4763 215.475 75.8936 224.748C75.4379 224.96 75.067 225.14 74.463 224.854C53.5239 214.903 32.5743 204.985 11.614 195.066C7.74619 193.233 3.87839 191.421 0 189.609C0 170.556 0 151.514 0 132.461H150.198V132.461ZM72.0788 180.824C72.0046 181.333 71.9304 181.852 71.8562 182.382H78.0977V180.856C76.0949 180.845 74.0921 180.835 72.0788 180.814V180.824ZM57.2434 203.83C57.858 203.893 58.4832 203.957 59.1296 204.031V195.766C58.462 195.819 57.8686 195.861 57.2646 195.903C57.2116 195.967 57.1268 196.041 57.1268 196.105C57.1268 198.606 57.1268 201.117 57.1268 203.618C57.1268 203.692 57.2116 203.756 57.254 203.83H57.2434ZM70.3939 195.882C70.3515 195.956 70.2667 196.02 70.2667 196.094C70.2561 198.616 70.2349 201.138 70.2561 203.66C70.2561 203.819 70.5105 204.105 70.6482 204.105C72.1211 204.095 73.6047 204.031 75.0776 203.978C75.3743 203.893 75.671 203.819 75.9677 203.734C77.695 203.205 78.7759 201.891 78.8712 200.163C78.9772 198.298 78.1189 196.804 76.4234 196.179C74.4736 195.458 72.4284 195.67 70.4045 195.882H70.3939ZM66.2294 200.227C65.2757 199.051 64.2266 197.927 63.3895 196.688C62.7749 195.797 62.0437 195.617 61.0158 195.893C60.9628 195.956 60.8674 196.031 60.8674 196.094C60.8568 198.616 60.8462 201.138 60.8568 203.66C60.8568 203.809 61.0476 204.084 61.1536 204.095C61.7258 204.095 62.298 204.031 62.8702 203.989V199.188C62.955 199.178 63.0292 199.157 63.1139 199.146C64.3961 200.778 65.6889 202.41 66.9288 203.978H68.5077V195.755C67.8401 195.808 67.2361 195.861 66.6426 195.903C66.5897 197.037 66.5473 198.171 66.4625 199.305C66.4413 199.612 66.3036 199.92 66.2294 200.227ZM6.23086 184.628H8.32901V179.447C9.57942 180.994 10.798 182.34 11.8153 183.813C12.4617 184.756 13.2459 184.745 14.2208 184.607V176.119H12.2392C12.1756 176.427 12.0696 176.734 12.059 177.041C11.9849 178.313 11.9319 179.595 11.8683 180.867C10.851 179.627 9.75956 178.44 8.85884 177.137C8.20185 176.194 7.3965 175.907 6.25205 176.13C6.17788 176.299 6.05072 176.469 6.05072 176.628C6.04012 179.118 6.04012 181.608 6.05072 184.109C6.05072 184.279 6.17788 184.448 6.24146 184.618L6.23086 184.628ZM88.4507 176.109C88.3871 176.416 88.2705 176.723 88.2493 177.031C88.1751 178.313 88.1328 179.595 88.0692 180.877C87.0519 179.637 85.9604 178.44 85.0491 177.147C84.3921 176.215 83.5974 175.907 82.4423 176.141C82.3682 176.31 82.241 176.469 82.241 176.639C82.2304 179.129 82.241 181.619 82.241 184.12C82.241 184.289 82.3681 184.459 82.4317 184.628H84.5299V179.447C85.7803 180.994 87.0095 182.34 88.0056 183.813C88.652 184.766 89.4362 184.724 90.3793 184.607V176.098H88.4295L88.4507 176.109ZM57.2646 164.643C57.2646 164.643 57.3705 164.643 57.4235 164.622C57.4447 164.622 57.4553 164.58 57.4553 164.548C57.4553 162.322 57.4659 160.087 57.4553 157.861C57.4553 157.596 57.3705 157.331 57.3176 157.066C57.7414 155.106 59.4157 154.597 61.3867 154.396V150.645C59.7018 150.56 58.303 151.048 57.0314 152.203V150.825H52.761C52.6974 150.973 52.5808 151.122 52.5808 151.27C52.5808 155.583 52.5808 159.896 52.5808 164.209C52.5808 164.357 52.6974 164.505 52.7504 164.654C54.2551 164.654 55.7598 164.654 57.2646 164.643V164.643ZM118.619 159.048C118.619 158.222 118.704 157.395 118.63 156.579C118.524 155.223 118.079 153.94 117.125 152.838C114.942 150.338 110.195 149.638 106.836 151.376C103.975 152.86 103.042 155.212 103.064 157.999C103.095 162.556 106.815 165.056 111.477 165.152C112.071 165.162 112.675 164.961 113.268 164.823C115.451 164.336 117.221 163.361 118.174 161.475C118.323 161.167 118.386 160.828 118.503 160.457C117.051 160.394 115.748 160.32 114.444 160.288C114.232 160.288 113.936 160.457 113.809 160.627C112.971 161.793 111.7 161.888 110.354 161.708C109.051 161.538 108.245 160.85 107.97 159.705C108.309 159.536 108.648 159.239 108.987 159.228C111.88 159.186 114.762 159.207 117.655 159.196C117.973 159.196 118.291 159.09 118.609 159.027L118.619 159.048ZM50.2813 159.048C50.2919 158.391 50.3343 157.723 50.3131 157.066C50.2072 154.343 49.1051 152.044 46.0639 151.016C42.8954 149.945 39.78 150.189 37.1414 152.266C35.1598 153.834 34.683 155.933 34.7254 158.19C34.7784 161.803 37.7984 164.834 41.8782 165.131C44.3154 165.311 46.5513 164.664 48.4269 163.244C49.3594 162.534 49.9528 161.623 50.1754 160.457C48.7236 160.394 47.3884 160.33 46.0533 160.298C45.8625 160.298 45.5976 160.457 45.4916 160.606C44.7075 161.771 43.4677 161.867 42.1537 161.729C40.8821 161.602 40.0555 160.966 39.6846 159.885C39.6634 159.769 39.6529 159.652 39.6317 159.546C39.6211 159.43 39.6105 159.313 39.5999 159.196C42.9378 159.196 46.2652 159.218 49.6032 159.207C49.8257 159.207 50.0588 159.101 50.2813 159.037V159.048ZM131.971 143.895C131.908 144.181 131.802 144.467 131.802 144.753C131.791 146.671 131.802 148.6 131.77 150.518C131.77 150.783 131.516 151.058 131.378 151.323C131.155 151.228 130.933 151.143 130.71 151.048C127.627 149.691 123.43 150.581 121.481 153.061C119.753 155.265 119.594 157.713 120.315 160.235C121.152 163.16 124.056 165.078 127.69 165.141C129.354 165.173 130.827 164.495 132.183 163.509C132.226 163.944 132.268 164.304 132.31 164.696C133.031 164.696 133.688 164.717 134.345 164.696C135.066 164.664 135.786 164.59 136.507 164.527C136.56 164.24 136.655 163.944 136.655 163.658C136.655 157.268 136.655 150.889 136.655 144.499C136.655 144.244 136.528 143.99 136.464 143.736C135.564 143.736 134.652 143.704 133.752 143.736C133.148 143.757 132.554 143.842 131.961 143.905L131.971 143.895ZM33.6975 151.885C32.9557 150.475 32.4789 149.14 31.6312 148.038C28.272 143.64 20.7483 143.206 16.1176 145.611C13.1823 147.127 11.5928 149.479 11.0841 152.404C10.5437 155.488 10.904 158.444 13.0022 161.061C15.1957 163.806 18.4383 164.855 22.0517 165.152C23.0372 165.237 24.0651 164.993 25.0506 164.834C29.4376 164.145 32.6696 161.284 33.369 157.437C33.1995 157.406 33.0193 157.342 32.8498 157.331C31.3874 157.225 29.9357 157.119 28.4309 157.013C28.378 157.172 28.3462 157.3 28.3038 157.427C27.3925 159.981 25.4745 161.263 22.4438 161.348C19.784 161.411 17.3256 160.002 16.3507 157.819C15.5771 156.081 15.5348 154.28 15.9692 152.478C16.6262 149.723 19.0741 147.879 22.2743 147.89C25.3261 147.9 27.562 149.151 28.378 152.15C28.3886 152.192 28.4521 152.224 28.5263 152.298C30.1052 152.171 31.7159 152.044 33.6975 151.885V151.885ZM82.7602 150.857V154.216H85.6107V164.654H90.1249V154.152H93.802V150.793H89.86C90.1355 149.734 90.1673 148.706 90.6654 147.89C91.2906 146.862 92.6787 147.021 93.8232 147V143.64C91.831 143.407 89.9342 143.524 88.2493 144.52C85.7803 145.972 85.4624 148.208 85.6319 150.571C84.6358 150.666 83.7245 150.751 82.7708 150.846L82.7602 150.857ZM66.081 154.184C66.081 154.587 66.081 154.884 66.081 155.191C66.081 157.088 66.0386 158.984 66.0916 160.881C66.134 162.28 66.8228 163.435 68.2322 164.156C70.1607 165.152 72.2377 164.897 74.2829 164.76V161.242C73.7848 161.295 73.3504 161.369 72.9265 161.369C71.6867 161.369 70.6906 160.765 70.6376 159.811C70.5422 157.957 70.6058 156.092 70.6058 154.184H74.3041V150.804H70.5846V146.237H66.0916V150.645C65.1273 150.73 64.2266 150.804 63.2941 150.889V154.184H66.081V154.184ZM81.0224 164.675V150.846H76.6353V164.675H81.0224ZM96.5147 164.633H100.912V150.867H96.5147V164.633ZM96.8962 184.83C99.8739 184.83 101.919 183.039 101.93 180.443C101.93 177.804 99.8421 175.971 96.8644 175.992C93.8868 176.013 91.8416 177.804 91.8204 180.39C91.8098 183.018 93.8868 184.84 96.8962 184.83V184.83ZM20.7695 184.83C23.8002 184.851 25.8877 183.06 25.8983 180.443C25.9089 177.857 23.8638 176.024 20.9179 175.982C17.9402 175.939 15.7891 177.783 15.7785 180.379C15.7679 182.965 17.8236 184.798 20.7589 184.819L20.7695 184.83ZM130.265 180.4C130.011 179.51 129.863 178.641 129.513 177.836C128.994 176.649 127.913 176.013 126.472 176.003C124.988 176.003 123.907 176.639 123.335 177.847C122.519 179.574 122.53 181.333 123.367 183.039C123.907 184.162 124.924 184.798 126.355 184.83C127.828 184.862 128.909 184.247 129.47 183.092C129.873 182.255 130.011 181.312 130.276 180.4H130.265ZM54.0644 180.4C53.7888 179.489 53.6087 178.535 53.206 177.666C52.6868 176.554 51.5953 176.003 50.239 176.003C48.8826 176.003 47.8123 176.554 47.2401 177.656C46.2758 179.5 46.2758 181.386 47.2613 183.219C47.8547 184.332 48.9356 184.883 50.3661 184.84C51.7543 184.798 52.761 184.173 53.2802 183.081C53.6723 182.265 53.81 181.354 54.0856 180.411L54.0644 180.4ZM83.1629 203.967C83.7881 203.967 84.265 204.01 84.7206 203.946C84.9749 203.914 85.3564 203.745 85.3988 203.575C85.6849 202.389 86.5856 202.208 87.7513 202.346C88.2175 202.399 88.6944 202.389 89.1606 202.346C89.6693 202.304 90.0084 202.42 90.1143 202.897C90.3263 203.819 90.9833 204.137 92.0006 203.957C92.2019 203.925 92.4138 203.936 92.7317 203.925C91.3859 201.17 90.0719 198.489 88.6732 195.628C88.0692 195.819 87.1685 195.85 86.9989 196.179C85.6531 198.701 84.4557 201.287 83.1629 203.946V203.967ZM108.33 184.618C109.665 181.831 111.011 179.012 112.41 176.098C112.007 176.098 111.732 176.13 111.467 176.098C110.534 175.971 110.036 176.247 109.708 177.084C109.072 178.673 108.256 180.22 107.461 181.884C106.518 179.902 105.617 178.016 104.717 176.119H102.555C102.671 176.384 102.756 176.607 102.862 176.829C103.922 179.044 105.003 181.259 106.052 183.484C106.635 184.713 106.624 184.724 108.086 184.671C108.15 184.671 108.203 184.65 108.33 184.628V184.618ZM36.1136 176.098C35.7957 176.098 35.5731 176.13 35.3718 176.098C34.3121 175.929 33.7823 176.31 33.422 177.221C32.8074 178.769 32.0232 180.252 31.2391 181.905C30.3489 180.04 29.5436 178.323 28.7065 176.617C28.6005 176.416 28.3356 176.162 28.113 176.13C27.5514 176.066 26.9686 176.109 26.2692 176.109C27.4878 178.641 28.6641 181.057 29.8191 183.473C30.4125 184.713 30.4019 184.724 31.9385 184.671C31.9702 184.671 32.002 184.66 32.0868 184.639C33.3902 181.948 34.7042 179.235 36.0076 176.511C36.05 176.416 36.0606 176.299 36.103 176.109L36.1136 176.098ZM143.437 180.263C144.518 179.076 144.645 177.984 143.808 176.967C143.066 176.056 141.286 175.717 139.876 176.215C138.743 176.607 138.17 177.444 138.298 178.546C138.88 178.546 139.474 178.546 140.057 178.546C140.099 178.504 140.163 178.472 140.173 178.429C140.332 177.783 140.798 177.465 141.53 177.592C142.155 177.698 142.377 178.133 142.303 178.652C142.197 179.33 141.635 179.51 140.947 179.531C140.682 179.531 140.406 179.563 140.141 179.574V181.004C141.074 181.132 142.282 180.75 142.494 182.001C142.579 182.541 142.377 183.05 141.657 183.209C140.597 183.442 140.205 182.848 139.982 182.117C139.283 182.159 138.668 182.191 138.054 182.223C138.287 183.802 139.018 184.554 140.512 184.787C142.134 185.042 143.617 184.491 144.21 183.41C144.846 182.255 144.581 181.153 143.448 180.252L143.437 180.263ZM133.921 183.113C134.705 182.361 135.394 181.831 135.903 181.195C136.411 180.559 136.909 179.86 137.142 179.118C137.45 178.154 137.28 177.158 136.252 176.522C135.14 175.833 133.889 175.812 132.702 176.331C131.653 176.787 131.314 177.656 131.293 178.705H133.243C133.264 178.599 133.296 178.472 133.338 178.355C133.497 177.847 133.868 177.423 134.462 177.635C134.801 177.751 135.182 178.281 135.15 178.599C135.097 179.139 134.854 179.722 134.472 180.157C133.699 181.047 132.84 181.895 131.918 182.668C131.219 183.262 131.145 183.908 131.336 184.639H137.227V183.124H133.91L133.921 183.113ZM118.535 183.113C119.287 182.403 119.944 181.884 120.442 181.269C120.961 180.634 121.47 179.945 121.724 179.214C122.063 178.228 121.915 177.2 120.877 176.533C119.806 175.844 118.588 175.833 117.411 176.289C116.278 176.723 115.949 177.624 115.896 178.694H117.846C117.878 178.588 117.867 178.376 117.973 178.292C118.312 178.027 118.694 177.815 119.054 177.582C119.308 177.91 119.785 178.26 119.753 178.567C119.711 179.108 119.467 179.701 119.096 180.125C118.344 180.994 117.517 181.831 116.606 182.583C115.886 183.187 115.727 183.834 115.928 184.628H121.798V183.103H118.524L118.535 183.113ZM63.9829 178.694C64.0041 178.599 64.0147 178.493 64.0465 178.387C64.1948 177.889 64.5021 177.508 65.1591 177.603C65.8267 177.698 66.028 178.154 65.9115 178.652C65.7949 179.139 65.6254 179.68 65.2863 180.072C64.5021 180.962 63.6544 181.81 62.7431 182.594C62.0331 183.198 61.8317 183.834 62.0649 184.66H67.946V183.103H64.6717C65.1697 182.647 65.5618 182.34 65.8797 181.979C66.4943 181.291 67.1937 180.634 67.6281 179.871C68.4017 178.514 67.9884 177.052 66.8122 176.416C64.6505 175.25 62.2026 176.416 62.0649 178.705H64.0041L63.9829 178.694ZM42.302 183.124C43.0862 182.371 43.775 181.842 44.2836 181.206C44.7922 180.57 45.2903 179.871 45.5234 179.129C45.8307 178.164 45.6612 177.168 44.6333 176.533C43.5206 175.844 42.2702 175.833 41.0834 176.342C40.0343 176.798 39.6952 177.666 39.674 178.716H41.6238C41.645 178.62 41.6768 178.482 41.7192 178.366C41.8782 177.868 42.249 177.433 42.8425 177.645C43.1815 177.762 43.563 178.292 43.5312 178.61C43.4783 179.15 43.2345 179.733 42.8531 180.167C42.0795 181.057 41.2212 181.905 40.2992 182.679C39.5893 183.272 39.5257 183.919 39.7164 184.639H45.6082V183.124H42.2914H42.302ZM57.699 183.124C58.4302 182.435 59.0554 181.937 59.5429 181.344C60.0833 180.687 60.6237 179.987 60.8992 179.224C61.2489 178.249 61.1006 177.221 60.0515 176.543C58.9812 175.854 57.7626 175.833 56.5864 176.289C55.4525 176.723 55.1134 177.613 55.0605 178.694H57.0208C57.0526 178.588 57.0314 178.387 57.1374 178.302C57.4765 178.037 57.858 177.825 58.2183 177.592C58.4726 177.921 58.9494 178.27 58.9177 178.578C58.8753 179.118 58.6209 179.712 58.2607 180.135C57.5083 181.004 56.6711 181.842 55.7704 182.594C55.0499 183.198 54.9015 183.844 55.0922 184.639H60.9628V183.113H57.6884L57.699 183.124ZM81.478 146.279C81.478 144.923 80.3866 143.916 78.8712 143.905C77.2923 143.884 76.1267 144.87 76.1055 146.237C76.0737 147.54 77.2393 148.6 78.7229 148.621C80.3018 148.642 81.4674 147.646 81.478 146.279V146.279ZM98.7083 143.905C97.1506 143.905 95.9849 144.933 96.0061 146.29C96.0167 147.604 97.1929 148.621 98.6871 148.621C100.213 148.621 101.357 147.625 101.379 146.311C101.389 144.912 100.277 143.916 98.7083 143.905V143.905ZM80.376 203.967H82.188V195.882H80.376V203.967Z" fill="#26306C"/>
<path id="Vector_3" d="M150.198 0.169547C149.88 0.169547 149.572 0.180144 149.255 0.180144C99.8209 0.180144 50.3767 0.180144 0.943106 0.180144C0.625205 0.180144 0.317901 0.180144 0 0.169547C0.0423868 0.116564 0.0741769 0.0105967 0.105967 0C0.349691 0 0.604012 0 0.858333 0C50.3555 0 99.8527 0 149.36 0C149.647 0 149.922 0.105967 150.208 0.15895L150.198 0.169547Z" fill="#EB4259"/>
<path id="Vector_4" d="M150.197 132.459H0.0102539V132.289H150.197V132.459Z" fill="#30184E"/>
<path id="Vector_5" d="M150.197 132.302H0.0102539V132.133H150.197V132.302Z" fill="#512E6F"/>
<path id="Vector_6" d="M21.5957 115.272C23.3865 109.688 25.1668 104.103 26.9682 98.4872H31.5036C33.2944 104.04 35.0853 109.603 36.9185 115.294C37.0457 115.06 37.141 114.944 37.1834 114.817C38.6987 109.667 40.2141 104.517 41.7082 99.3668C41.9095 98.6886 42.1851 98.3707 43.0752 98.4236C44.5269 98.5084 45.9999 98.4448 47.5576 98.4448C45.078 106.244 42.6195 113.948 40.1611 121.673H34.1951C33.3792 119.193 32.5633 116.692 31.7473 114.192C30.942 111.723 30.1472 109.243 29.1617 106.763C28.7167 108.13 28.261 109.487 27.8159 110.854C26.7139 114.255 25.6012 117.657 24.5522 121.069C24.372 121.652 24.0541 121.715 23.5031 121.715C22.0937 121.694 20.6844 121.673 19.275 121.715C18.5968 121.736 18.3001 121.535 18.12 120.952C17.0179 117.381 15.8629 113.821 14.729 110.26C13.5316 106.488 12.3448 102.705 11.1473 98.9323C11.1049 98.8051 11.0731 98.6674 11.0308 98.4872H16.541C18.1835 104.072 19.826 109.667 21.4685 115.262C21.5215 115.262 21.5745 115.262 21.6275 115.272H21.5957Z" fill="#FDF9F9"/>
<path id="Vector_7" d="M35.6366 14.6637C34.1425 15.4266 32.6907 16.1578 31.2496 16.8996C27.9752 12.9894 22.3802 13.2437 19.5614 14.7379C16.1175 16.5711 14.5704 20.4071 15.9162 23.8828C17.2302 27.2738 20.939 29.2341 25.326 28.8315C28.9077 28.503 31.5993 26.7863 31.9278 24.5186H24.1286V20.5131H37.3003C38.307 27.846 32.9874 33.049 25.3896 33.3563C20.7695 33.547 16.7639 32.4026 13.6273 29.3083C10.8086 26.5214 9.81247 23.2152 10.4059 19.5911C11.2324 14.5895 14.475 11.2092 19.9535 9.73621C25.8241 8.14671 32.4576 10.0329 35.626 14.6531L35.6366 14.6637Z" fill="#FDF9F9"/>
<path id="Vector_8" d="M18.9684 54.4536V62.0302H13.8184V38.8023C14.3588 38.8023 14.878 38.8023 15.4079 38.8023C18.6611 38.8447 21.9354 38.6751 25.1462 38.9824C30.2432 39.4699 33.5706 43.8887 32.4474 48.2969C31.5148 51.9422 27.9544 54.4536 23.6733 54.4536C22.1474 54.4536 20.6214 54.4536 18.9684 54.4536V54.4536ZM24.3939 43.2529H18.9472C18.9472 45.3193 18.9472 47.4068 18.9472 49.4944C18.9472 49.6851 18.979 49.8652 19.0001 50.0454H24.0548C26.0575 49.7911 27.3715 48.4665 27.4139 46.6862C27.4563 44.9484 26.2271 43.5496 24.3939 43.2529V43.2529Z" fill="#FEF8F9"/>
<path id="Vector_9" d="M90.2732 32.8575V31.3422C90.093 31.3846 89.9341 31.374 89.8811 31.427C86.9776 34.2987 80.4712 34.0761 77.2074 30.4415C73.435 26.2452 74.3569 18.9335 80.8103 16.4008C83.7244 15.2564 87.4121 15.7862 89.7222 17.6724C89.8493 17.7784 89.9977 17.8526 90.2838 18.0327V16.3691C90.4957 16.3373 90.6123 16.2949 90.7394 16.2949C92.1806 16.2949 93.6111 16.2949 95.1371 16.2949V32.8469H90.2944L90.2732 32.8575ZM79.9414 24.6345C79.9626 27.4214 82.0289 29.2758 85.102 29.2652C88.1221 29.2546 90.2944 27.2837 90.2732 24.5921C90.252 21.9111 88.0267 19.9719 85.0066 19.9931C82.0289 20.0037 79.9308 21.9323 79.9414 24.6345Z" fill="#FDF9F9"/>
<path id="Vector_10" d="M60.4551 47.274V45.5043H65.3084V62.0352H60.5081V60.4881C59.4272 61.0391 58.4311 61.7385 57.3079 62.0987C53.4825 63.328 49.3709 62.0776 46.9973 59.0787C44.168 55.5288 44.6872 50.3258 48.1417 47.2528C51.4585 44.3069 57.2231 44.1161 60.4551 47.2634V47.274ZM60.4551 53.8121C60.4551 51.0994 58.2722 49.1072 55.2733 49.1072C52.3274 49.1072 50.1233 51.0358 50.0915 53.632C50.0597 56.4401 52.1791 58.3899 55.2627 58.4005C58.2616 58.4005 60.4445 56.4719 60.4551 53.8121Z" fill="#FDF9F9"/>
<path id="Vector_11" d="M72.5552 26.408H58.5145C58.8112 27.722 59.659 28.6227 60.9306 29.0148C63.4632 29.7989 65.911 29.746 67.9668 27.8385C69.2384 28.4849 70.4994 29.1207 71.8558 29.7989C70.9869 31.0388 69.8636 31.9607 68.4119 32.4905C64.2791 33.9952 60.2524 33.8575 56.6813 31.3461C53.6295 29.2055 52.8347 26.1855 53.4387 22.9429C54.0533 19.6473 56.2468 17.2736 59.8921 16.2881C65.3706 14.8046 70.4888 16.8392 72.322 21.7243C72.8837 23.229 73.0638 24.7761 72.5552 26.3974V26.408ZM58.4404 22.9747H67.7972C67.2144 20.8553 65.5401 19.7321 63.0923 19.7745C60.6339 19.8062 58.949 20.9613 58.4404 22.9747Z" fill="#FDF9F9"/>
<path id="Vector_12" d="M95.9422 55.4912C96.1965 58.649 102.724 59.8358 105.341 56.9535C106.613 57.5999 107.895 58.2569 109.23 58.9351C107.736 60.9167 105.67 62.0399 103.137 62.3684C100.446 62.7181 97.7754 62.5698 95.3382 61.3088C91.7565 59.4437 90.0504 55.9468 90.824 52.026C92.2121 45.0322 101.272 43.2414 106.21 46.537C109.559 48.7729 110.597 51.8565 109.972 55.5018H95.9316L95.9422 55.4912ZM105.13 52.1532C104.949 50.3836 103.074 48.9742 100.965 48.8682C98.337 48.7305 96.1329 50.1292 95.815 52.1532H105.13V52.1532Z" fill="#FDF9F9"/>
<path id="Vector_13" d="M101.792 105.046C99.1851 107.865 96.7161 110.535 94.1941 113.269C96.7585 116.035 99.3123 118.779 102.004 121.693C100.022 121.693 98.2314 121.715 96.4512 121.672C96.218 121.672 95.9637 121.354 95.773 121.153C93.855 119.065 91.9476 116.967 90.0402 114.869C89.9236 114.742 89.7964 114.636 89.5103 114.35V121.662H84.5723V98.5078H89.4573V111.944C89.5209 111.976 89.5951 111.997 89.6587 112.029C90.5276 111.065 91.4071 110.101 92.2761 109.126C93.3463 107.918 94.406 106.688 95.4975 105.502C95.6882 105.3 96.0273 105.088 96.3134 105.078C98.0619 105.035 99.8103 105.057 101.792 105.057V105.046Z" fill="#FDF9F9"/>
<path id="Vector_14" d="M66.9929 113.388C67.0035 118.305 62.6483 122.151 57.032 122.183C51.4475 122.204 46.9863 118.337 46.9863 113.452C46.9863 108.418 51.3628 104.561 57.0532 104.582C62.6483 104.603 66.9823 108.439 66.9929 113.388ZM56.9472 117.934C59.8295 117.955 62.076 115.984 62.0972 113.399C62.1184 110.845 59.9461 108.853 57.1062 108.81C54.1603 108.768 51.8926 110.76 51.9032 113.377C51.9138 115.921 54.1179 117.902 56.9472 117.923V117.934Z" fill="#FCF8F7"/>
<path id="Vector_15" d="M47.7807 82.9385C47.7595 87.8977 43.4572 91.649 37.788 91.6596C32.0764 91.6596 27.7953 87.8447 27.8165 82.7477C27.8377 77.8944 32.2353 74.0902 37.8198 74.1114C43.489 74.122 47.8125 77.9474 47.7913 82.9385H47.7807ZM42.8638 82.9067C42.8744 80.2999 40.7127 78.3289 37.8092 78.3077C34.9587 78.2865 32.7016 80.3105 32.7122 82.8961C32.7122 85.4711 34.8633 87.3891 37.7562 87.3997C40.7233 87.4103 42.8532 85.5453 42.8638 82.9067V82.9067Z" fill="#FDF9F9"/>
<path id="Vector_16" d="M17.3795 73.3205H10.3433V69.1348H29.6399V73.3099H22.5719V91.1335H17.3795V73.3205Z" fill="#FCF8F7"/>
<path id="Vector_17" d="M87.8995 49.3258C86.5538 50.0252 85.1974 50.7245 83.8516 51.4133C81.0647 48.8171 78.034 48.5098 75.8299 50.555C73.8059 52.4306 74.0073 55.5566 76.2538 57.2627C78.3943 58.884 81.7429 58.386 83.8622 56.0653C85.2398 56.7541 86.6279 57.4534 88.0161 58.1528C85.9815 61.512 81.817 63.1333 77.2711 62.3279C72.4284 61.4696 69.3977 57.8561 69.5037 53.3843C69.6096 49.294 72.8946 45.8819 77.5042 45.1083C81.7958 44.3877 86.4478 46.2421 87.9101 49.3152L87.8995 49.3258Z" fill="#FCF8F7"/>
<path id="Vector_18" d="M102.057 12.9178C103.605 12.5152 105.152 12.1231 106.805 11.6992V16.2876H111.086V20.4521H106.837C106.837 20.823 106.837 21.1409 106.837 21.4588C106.837 23.3344 106.837 25.1994 106.837 27.075C106.837 28.495 107.398 28.993 109.03 29.0566C109.687 29.0778 110.344 29.0566 111.065 29.0566V32.9668C109.104 33.0728 107.176 33.2423 105.3 32.6913C103.477 32.1509 102.333 30.9746 102.174 29.3215C101.962 27.075 102.004 24.8179 101.951 22.5714C101.93 21.9144 101.951 21.2574 101.951 20.5157H98.7725C98.7725 19.0745 98.7725 17.7075 98.7725 16.3406C99.8109 16.3406 100.849 16.3406 102.057 16.3406V12.9284V12.9178Z" fill="#FDFAFA"/>
<path id="Vector_19" d="M40.9034 62.0883H36.1455V38.998C37.735 38.998 39.3139 38.998 40.9034 38.998C40.9246 39.3265 40.9776 39.655 40.9776 39.9835C40.9776 46.7548 40.9776 53.5155 40.9776 60.2868C40.9776 60.8908 40.9352 61.4948 40.9034 62.0989V62.0883Z" fill="#FDFAFA"/>
<path id="Vector_20" d="M75.3003 121.557C73.7002 121.621 72.1001 121.695 70.4258 121.759V105.101H75.2579V107.156C76.2222 106.478 76.964 105.789 77.8753 105.376C78.7866 104.963 79.8568 104.825 80.9907 104.539V109.445C78.3839 109.583 75.9255 109.922 75.438 112.773C75.385 113.006 75.2791 113.25 75.2791 113.483C75.2791 116.174 75.2791 118.866 75.2897 121.557H75.3003Z" fill="#FEF8F9"/>
<path id="Vector_21" d="M40.5858 16.3523H45.1106V18.5776C45.9689 17.8888 46.6577 17.1258 47.5372 16.6808C48.4062 16.2463 49.487 16.1192 50.5891 15.8224V20.7499C49.9427 20.7923 49.2857 20.7499 48.6711 20.8771C46.5729 21.2797 45.3119 22.5514 45.2378 24.4694C45.1424 26.8642 45.1742 29.2485 45.1424 31.6433C45.1424 32.0248 45.1424 32.4063 45.1424 32.8513H40.5858V16.3523Z" fill="#FDFAFA"/>
<path id="Vector_22" d="M103.657 118.61C103.657 116.67 105.564 114.795 108.086 114.911C110.502 115.017 112.304 116.586 112.272 118.737C112.24 120.814 110.311 122.435 107.885 122.403C105.458 122.382 103.625 120.74 103.657 118.61V118.61ZM108.022 115.59C106.009 115.568 104.526 116.829 104.483 118.588C104.451 120.337 105.924 121.704 107.885 121.725C109.856 121.757 111.382 120.443 111.413 118.694C111.445 116.904 110.025 115.611 108.022 115.579V115.59Z" fill="#F6E5E5"/>
<path id="Vector_23" d="M40.9033 62.0852C40.9245 61.4812 40.9775 60.8772 40.9775 60.2731C40.9775 53.5019 40.9775 46.7412 40.9775 39.9699C40.9775 39.6414 40.9351 39.3129 40.9033 38.9844C41.0305 39.1963 41.2636 39.4082 41.2636 39.6202C41.2848 46.9001 41.2848 54.1694 41.2636 61.4494C41.2636 61.6613 41.0305 61.8732 40.9033 62.0852Z" fill="#E4555B"/>
<path id="Vector_24" d="M75.3007 121.554C75.3007 118.863 75.2795 116.171 75.2901 113.48C75.2901 113.246 75.396 113.003 75.449 112.77C75.449 115.525 75.4702 118.269 75.4702 121.024C75.4702 121.205 75.3643 121.374 75.3007 121.554Z" fill="#AF3E47"/>
<path id="Vector_25" d="M102.057 12.9168V16.329C100.849 16.329 99.8109 16.329 98.7725 16.329C99.5248 16.276 100.288 16.1912 101.04 16.1806C101.612 16.1806 101.814 15.9899 101.782 15.5024C101.75 14.8772 101.75 14.2414 101.782 13.6162C101.793 13.3725 101.951 13.1394 102.047 12.9062L102.057 12.9168Z" fill="#B55258"/>
<path id="Vector_26" d="M33.7084 151.874C31.7268 152.033 30.1161 152.16 28.5372 152.287C28.4631 152.213 28.3995 152.181 28.3889 152.139C27.5835 149.14 25.337 147.9 22.2852 147.879C19.085 147.868 16.6371 149.702 15.9801 152.467C15.5457 154.269 15.5881 156.07 16.3616 157.808C17.3365 159.991 19.8056 161.4 22.4547 161.337C25.4854 161.263 27.4034 159.97 28.3147 157.416C28.3571 157.289 28.3889 157.162 28.4419 157.003C29.9466 157.109 31.3983 157.215 32.8607 157.321C33.0408 157.331 33.2104 157.395 33.3799 157.427C32.6805 161.273 29.4486 164.134 25.0615 164.823C24.0654 164.982 23.0375 165.215 22.0627 165.141C18.4492 164.844 15.196 163.795 13.0131 161.051C10.9255 158.433 10.5652 155.477 11.0951 152.393C11.6037 149.468 13.1932 147.127 16.1285 145.601C20.7593 143.206 28.2723 143.64 31.6421 148.027C32.4898 149.14 32.9667 150.465 33.7084 151.874V151.874Z" fill="#F8F8FA"/>
<path id="Vector_27" d="M136.529 164.513C135.809 164.566 135.088 164.651 134.368 164.682C133.711 164.714 133.054 164.682 132.333 164.682C132.291 164.29 132.259 163.93 132.206 163.495C130.86 164.492 129.377 165.159 127.713 165.127C124.089 165.064 121.185 163.135 120.338 160.221C119.606 157.688 119.776 155.251 121.503 153.047C123.442 150.567 127.639 149.688 130.733 151.034C130.955 151.129 131.178 151.224 131.4 151.309C131.528 151.479 131.665 151.638 131.793 151.807C131.856 151.765 131.92 151.723 131.983 151.67V143.87C132.577 143.817 133.181 143.722 133.774 143.701C134.675 143.68 135.576 143.701 136.487 143.701C136.487 144.856 136.487 146.011 136.497 147.166C136.497 152.941 136.519 158.716 136.529 164.492V164.513ZM124.481 157.89C124.534 158.165 124.576 158.663 124.703 159.14C125.127 160.645 126.568 161.599 128.338 161.599C130.161 161.599 131.496 160.677 131.867 159.098C132.004 158.483 132.047 157.826 131.994 157.19C131.803 154.7 129.928 153.418 127.3 153.937C125.625 154.266 124.502 155.76 124.481 157.89V157.89Z" fill="#FAFBFB"/>
<path id="Vector_28" d="M39.6853 159.894C40.0456 160.985 40.8828 161.611 42.1544 161.738C43.4789 161.865 44.7188 161.769 45.4923 160.614C45.5983 160.466 45.8632 160.297 46.0539 160.307C47.3891 160.339 48.7243 160.402 50.1761 160.466C49.9535 161.632 49.3601 162.543 48.4276 163.253C46.5626 164.673 44.3161 165.319 41.8788 165.139C37.7885 164.843 34.7791 161.801 34.7261 158.198C34.6943 155.941 35.1711 153.843 37.1421 152.275C39.7807 150.187 42.8961 149.944 46.0645 151.024C49.1058 152.052 50.2079 154.352 50.3138 157.075C50.335 157.732 50.2926 158.4 50.282 159.057C47.0076 159.057 43.7227 159.057 40.4483 159.057C40.1622 159.057 39.8867 159.152 39.6006 159.205C39.6112 159.322 39.6217 159.438 39.6323 159.555C39.6535 159.671 39.6641 159.788 39.6853 159.894ZM45.6937 155.994C45.4923 154.447 44.6128 153.674 42.9915 153.589C41.1689 153.493 40.0562 154.225 39.6429 155.772C39.6217 155.973 39.6111 156.174 39.59 156.418C41.5397 156.418 43.4048 156.418 45.2698 156.418C45.6089 156.418 45.948 156.439 45.6937 155.994V155.994Z" fill="#F8F8FA"/>
<path id="Vector_29" d="M107.992 159.715C108.267 160.86 109.072 161.548 110.376 161.718C111.722 161.898 112.993 161.803 113.83 160.637C113.947 160.468 114.254 160.287 114.466 160.298C115.77 160.319 117.084 160.404 118.525 160.468C118.408 160.838 118.355 161.178 118.196 161.485C117.253 163.371 115.473 164.335 113.29 164.833C112.697 164.971 112.093 165.172 111.499 165.162C106.826 165.067 103.117 162.566 103.085 158.009C103.064 155.222 103.997 152.87 106.858 151.386C110.217 149.648 114.964 150.348 117.147 152.849C118.111 153.951 118.546 155.233 118.652 156.589C118.715 157.405 118.652 158.232 118.641 159.058C115.081 159.058 111.52 159.058 107.907 159.058C107.949 159.355 107.981 159.546 108.002 159.736L107.992 159.715ZM107.949 156.271C108.045 156.324 108.14 156.409 108.235 156.409C110.153 156.409 112.071 156.398 113.989 156.388C114.032 156.356 114.116 156.335 114.116 156.303C114.085 154.608 112.887 153.537 111.043 153.548C109.2 153.548 107.992 154.618 107.939 156.271H107.949Z" fill="#F8F8FA"/>
<path id="Vector_30" d="M82.7713 150.845C83.7144 150.749 84.6364 150.665 85.6325 150.569C85.4629 148.206 85.7914 145.97 88.2498 144.519C89.9453 143.523 91.8421 143.406 93.8237 143.639V146.998C92.6687 147.019 91.2911 146.86 90.6659 147.888C90.1678 148.704 90.1361 149.732 89.8605 150.792H93.8025V154.151H90.1255V164.652H85.6113V154.215H82.7607V150.855L82.7713 150.845Z" fill="#F8F8FA"/>
<path id="Vector_31" d="M66.0926 154.174H63.3057V150.879C64.2382 150.794 65.1495 150.72 66.1032 150.635V146.227H70.5962V150.794H74.3156V154.174H70.6174C70.6174 156.081 70.5538 157.947 70.6492 159.801C70.7022 160.755 71.6982 161.359 72.9381 161.359C73.3725 161.359 73.807 161.284 74.2944 161.231V164.75C72.2493 164.887 70.1723 165.142 68.2437 164.146C66.8344 163.414 66.1562 162.27 66.1032 160.871C66.0396 158.974 66.0926 157.078 66.0926 155.181C66.0926 154.884 66.0926 154.587 66.0926 154.174V154.174Z" fill="#FAFBFB"/>
<path id="Vector_32" d="M52.7606 150.813H57.0311V152.19C58.3027 151.035 59.7014 150.548 61.3863 150.632V154.384C59.4153 154.574 57.741 155.094 57.3172 157.054C57.296 159.576 57.2854 162.098 57.2642 164.62C55.7595 164.62 54.2547 164.62 52.75 164.631C52.75 160.021 52.75 155.412 52.75 150.802L52.7606 150.813Z" fill="#FAFBFB"/>
<path id="Vector_33" d="M81.0335 164.663H76.6465V150.834H81.0335V164.663Z" fill="#FAFBFB"/>
<path id="Vector_34" d="M96.5361 164.621V150.855H100.934V164.621H96.5361Z" fill="#FAFBFB"/>
<path id="Vector_35" d="M82.4531 176.126C83.6082 175.882 84.4029 176.2 85.0599 177.132C85.9712 178.425 87.0627 179.623 88.08 180.862C88.1541 180.968 88.2389 181.064 88.4509 181.35V176.083H90.4006V184.592C89.4575 184.709 88.6734 184.741 88.027 183.798C87.0203 182.325 85.7911 180.979 84.5513 179.432V184.614C83.7989 184.614 83.1313 184.614 82.4531 184.614C82.4531 181.784 82.4531 178.955 82.4531 176.126V176.126Z" fill="#F3F4F7"/>
<path id="Vector_36" d="M6.23213 176.123C7.37657 175.901 8.18192 176.176 8.83892 177.13C9.73964 178.434 10.8417 179.62 11.8484 180.86C11.9226 180.966 12.0073 181.062 12.2193 181.358V176.102H14.2008V184.59C13.226 184.728 12.4418 184.739 11.7954 183.795C10.7887 182.323 9.55949 180.977 8.30908 179.43V184.611C7.55672 184.611 6.88913 184.611 6.21094 184.611C6.21094 181.782 6.21094 178.953 6.21094 176.123H6.23213Z" fill="#F3F4F7"/>
<path id="Vector_37" d="M96.9176 184.814C93.9082 184.814 91.8312 183.002 91.8418 180.374C91.8524 177.789 93.9082 175.998 96.8859 175.977C99.8741 175.956 101.962 177.789 101.951 180.427C101.951 183.024 99.8953 184.804 96.9176 184.814V184.814ZM99.8847 180.396C99.8847 178.7 98.6873 177.556 96.9071 177.545C95.1162 177.545 93.8976 178.668 93.887 180.364C93.8764 182.123 95.0738 183.257 96.9282 183.235C98.7403 183.225 99.8953 182.112 99.8953 180.396H99.8847Z" fill="#F3F4F6"/>
<path id="Vector_38" d="M20.7912 184.815C17.8453 184.794 15.7895 182.961 15.8107 180.375C15.8213 177.768 17.9724 175.935 20.9501 175.977C23.896 176.02 25.9412 177.853 25.9306 180.438C25.92 183.056 23.8218 184.847 20.8018 184.826L20.7912 184.815ZM23.8642 180.354C23.8536 178.669 22.6244 177.535 20.8335 177.546C19.0427 177.556 17.8453 178.711 17.8453 180.407C17.8453 182.145 19.0851 183.278 20.9289 183.247C22.7304 183.215 23.8748 182.081 23.8536 180.364L23.8642 180.354Z" fill="#F3F4F7"/>
<path id="Vector_39" d="M66.6423 195.91C67.2463 195.857 67.8503 195.815 68.5073 195.762V203.985H66.9284C65.6886 202.406 64.3958 200.774 63.1136 199.153C63.0289 199.163 62.9547 199.184 62.8699 199.195C62.8699 200.795 62.8699 202.395 62.8699 203.995C62.2659 203.995 61.6513 203.995 61.0049 203.995V195.899C62.0328 195.624 62.7639 195.804 63.3785 196.694C64.2263 197.923 65.2648 199.057 66.2185 200.234C66.3138 200.371 66.4092 200.52 66.6317 200.838V195.91H66.6423Z" fill="#F5F6F8"/>
<path id="Vector_40" d="M70.3945 195.882C72.4185 195.67 74.4637 195.458 76.4135 196.178C78.1089 196.804 78.9673 198.308 78.8613 200.163C78.7659 201.879 77.6957 203.204 75.9578 203.734C75.6611 203.819 75.3644 203.903 75.0783 203.978C73.5312 203.978 71.984 203.978 70.3945 203.978V195.882ZM72.3655 202.505C73.8491 202.409 75.481 202.939 76.477 201.54C77.2506 200.46 77.24 199.252 76.477 198.181C75.4915 196.804 73.8491 197.27 72.3549 197.206V202.505H72.3655Z" fill="#F5F6F8"/>
<path id="Vector_41" d="M130.277 180.394C130.012 181.305 129.885 182.248 129.472 183.085C128.921 184.23 127.829 184.855 126.356 184.823C124.926 184.791 123.919 184.156 123.368 183.032C122.531 181.316 122.531 179.567 123.336 177.84C123.909 176.632 124.99 175.986 126.473 175.996C127.914 175.996 128.995 176.643 129.514 177.829C129.864 178.635 130.012 179.504 130.267 180.394H130.277ZM128.147 180.447C128.052 179.853 128.01 179.249 127.851 178.667C127.67 178.052 127.278 177.554 126.441 177.554C125.657 177.554 125.148 178.031 125.095 178.603C124.99 179.811 125 181.04 125.117 182.259C125.17 182.81 125.678 183.223 126.42 183.244C127.204 183.255 127.639 182.82 127.819 182.238C127.999 181.665 128.041 181.051 128.147 180.447Z" fill="#F3F4F6"/>
<path id="Vector_42" d="M54.0749 180.385C53.7993 181.338 53.6616 182.239 53.2695 183.055C52.7503 184.136 51.7542 184.772 50.3554 184.814C48.9355 184.857 47.844 184.295 47.2506 183.193C46.2651 181.36 46.2651 179.473 47.2294 177.63C47.8016 176.538 48.8719 175.977 50.2283 175.977C51.5846 175.977 52.6761 176.528 53.1953 177.64C53.598 178.509 53.7781 179.463 54.0537 180.374L54.0749 180.385ZM51.9237 180.385C51.8284 179.823 51.786 179.219 51.6164 178.636C51.4469 178.054 51.0548 177.577 50.2812 177.555C49.4547 177.534 48.9249 178.011 48.8719 178.636C48.7659 179.823 48.7659 181.021 48.8719 182.207C48.9249 182.801 49.4441 183.246 50.2283 183.246C51.0548 183.246 51.4575 182.758 51.627 182.144C51.7754 181.593 51.8178 181.01 51.9131 180.395L51.9237 180.385Z" fill="#F3F4F6"/>
<path id="Vector_43" d="M83.1738 203.953C84.4666 201.283 85.664 198.708 87.0098 196.186C87.19 195.857 88.0801 195.815 88.6841 195.635C90.0829 198.496 91.3969 201.177 92.7426 203.932C92.4247 203.943 92.2128 203.932 92.0115 203.964C90.9942 204.133 90.3372 203.815 90.1253 202.904C90.0193 202.438 89.6802 202.311 89.1716 202.353C88.7053 202.395 88.2284 202.406 87.7622 202.353C86.5966 202.215 85.6958 202.395 85.4097 203.582C85.3673 203.741 84.9753 203.921 84.7315 203.953C84.2759 204.017 83.799 203.974 83.1738 203.974V203.953ZM87.9741 198.379C87.5503 199.301 87.1794 200.096 86.7767 200.965H89.1716C88.7795 200.128 88.4298 199.354 87.9741 198.379V198.379Z" fill="#F3F4F6"/>
<path id="Vector_44" d="M108.341 184.607C108.224 184.629 108.16 184.65 108.097 184.65C106.635 184.703 106.645 184.692 106.062 183.463C105.003 181.238 103.932 179.034 102.873 176.808C102.767 176.586 102.682 176.363 102.565 176.098H104.727C105.628 177.995 106.529 179.881 107.472 181.863C108.266 180.189 109.082 178.652 109.718 177.063C110.057 176.215 110.555 175.95 111.477 176.077C111.742 176.109 112.018 176.077 112.42 176.077C111.022 178.991 109.676 181.81 108.341 184.597V184.607Z" fill="#F3F4F6"/>
<path id="Vector_45" d="M36.114 176.086C36.0716 176.277 36.0716 176.394 36.0186 176.489C34.7046 179.212 33.3907 181.925 32.0979 184.617C32.0131 184.638 31.9813 184.648 31.9495 184.648C30.413 184.701 30.4236 184.701 29.8302 183.451C28.6751 181.035 27.4989 178.629 26.2803 176.086C26.9691 176.086 27.5519 176.044 28.1241 176.107C28.3466 176.139 28.6115 176.383 28.7175 176.595C29.5547 178.301 30.36 180.018 31.2501 181.883C32.0237 180.24 32.8184 178.746 33.433 177.199C33.7933 176.298 34.3126 175.906 35.3828 176.076C35.5948 176.107 35.8173 176.076 36.1246 176.076L36.114 176.086Z" fill="#F3F4F6"/>
<path id="Vector_46" d="M143.438 180.25C144.572 181.15 144.836 182.263 144.201 183.407C143.597 184.488 142.124 185.029 140.502 184.785C139.008 184.552 138.277 183.799 138.044 182.221C138.669 182.189 139.284 182.157 139.973 182.115C140.195 182.835 140.587 183.439 141.647 183.206C142.367 183.047 142.569 182.538 142.484 181.998C142.283 180.737 141.075 181.129 140.131 181.002V179.571C140.396 179.561 140.661 179.529 140.937 179.529C141.626 179.518 142.187 179.328 142.293 178.649C142.378 178.13 142.145 177.696 141.52 177.59C140.788 177.473 140.322 177.791 140.163 178.427C140.153 178.469 140.089 178.501 140.047 178.543C139.453 178.543 138.87 178.543 138.288 178.543C138.161 177.441 138.743 176.604 139.867 176.212C141.287 175.714 143.056 176.053 143.798 176.965C144.635 177.982 144.508 179.073 143.427 180.26L143.438 180.25Z" fill="#F3F4F6"/>
<path id="Vector_47" d="M133.921 183.089H137.238V184.604H131.346C131.156 183.873 131.219 183.237 131.929 182.633C132.851 181.849 133.709 181.012 134.483 180.122C134.854 179.698 135.108 179.104 135.161 178.564C135.193 178.246 134.811 177.716 134.472 177.6C133.879 177.398 133.519 177.822 133.349 178.32C133.307 178.447 133.286 178.575 133.254 178.67H131.304C131.315 177.621 131.654 176.752 132.713 176.296C133.9 175.788 135.151 175.798 136.263 176.487C137.28 177.123 137.461 178.119 137.153 179.083C136.92 179.825 136.422 180.524 135.914 181.16C135.394 181.796 134.716 182.336 133.932 183.078L133.921 183.089Z" fill="#F5F6F8"/>
<path id="Vector_48" d="M118.535 183.091H121.809V184.617H115.939C115.737 183.822 115.896 183.176 116.617 182.572C117.518 181.82 118.355 180.982 119.107 180.113C119.478 179.679 119.722 179.086 119.764 178.556C119.796 178.248 119.319 177.899 119.065 177.57C118.705 177.803 118.312 178.015 117.984 178.28C117.878 178.365 117.889 178.577 117.857 178.683H115.907C115.96 177.602 116.299 176.712 117.422 176.277C118.599 175.822 119.817 175.832 120.887 176.521C121.926 177.189 122.074 178.217 121.735 179.202C121.481 179.933 120.962 180.622 120.453 181.258C119.955 181.873 119.298 182.381 118.546 183.102L118.535 183.091Z" fill="#F3F4F7"/>
<path id="Vector_49" d="M63.9926 178.663H62.0534C62.1911 176.363 64.6496 175.208 66.8007 176.374C67.9769 177.01 68.4008 178.472 67.6166 179.828C67.1822 180.602 66.4828 181.259 65.8682 181.937C65.5503 182.297 65.1582 182.605 64.6602 183.06H67.9345V184.618H62.0534C61.8202 183.802 62.0216 183.156 62.7316 182.552C63.6429 181.768 64.4906 180.92 65.2748 180.03C65.6139 179.648 65.7834 179.108 65.9 178.61C66.0165 178.112 65.8152 177.656 65.1476 177.561C64.4906 177.476 64.1939 177.847 64.035 178.345C64.0032 178.451 63.9926 178.557 63.9714 178.652L63.9926 178.663Z" fill="#F5F6F8"/>
<path id="Vector_50" d="M42.3032 183.088H45.6199V184.603H39.7282C39.5374 183.872 39.601 183.236 40.311 182.643C41.2329 181.859 42.0912 181.022 42.8648 180.132C43.2357 179.708 43.49 179.114 43.543 178.574C43.5748 178.256 43.1933 177.726 42.8542 177.61C42.2608 177.398 41.9005 177.832 41.7309 178.33C41.6886 178.457 41.6674 178.584 41.6356 178.68H39.6858C39.707 177.631 40.0355 176.762 41.0951 176.306C42.282 175.797 43.5324 175.808 44.645 176.497C45.6623 177.133 45.8425 178.129 45.5352 179.093C45.302 179.835 44.804 180.534 44.2954 181.17C43.7761 181.806 43.0979 182.346 42.3138 183.088H42.3032Z" fill="#F5F6F8"/>
<path id="Vector_51" d="M57.7098 183.09H60.9842V184.615H55.1136C54.9123 183.821 55.0713 183.174 55.7918 182.57C56.6925 181.818 57.5297 180.981 58.2821 180.112C58.6529 179.677 58.8967 179.084 58.9391 178.554C58.9708 178.247 58.494 177.897 58.2397 177.569C57.8794 177.802 57.4873 178.024 57.1588 178.279C57.0528 178.363 57.0634 178.565 57.0422 178.671H55.0819C55.1348 177.59 55.4739 176.7 56.6078 176.265C57.784 175.81 59.0026 175.831 60.0729 176.52C61.1114 177.198 61.2597 178.226 60.9206 179.201C60.6557 179.964 60.1047 180.663 59.5643 181.32C59.0874 181.913 58.4516 182.401 57.7204 183.1L57.7098 183.09Z" fill="#F3F4F7"/>
<path id="Vector_52" d="M81.4874 146.233C81.4874 147.6 80.3112 148.596 78.7323 148.575C77.2487 148.554 76.0831 147.494 76.1149 146.191C76.1467 144.824 77.3123 143.849 78.8806 143.859C80.3854 143.87 81.4874 144.877 81.4874 146.233V146.233Z" fill="#F5F6F8"/>
<path id="Vector_53" d="M98.719 143.859C100.287 143.859 101.4 144.866 101.389 146.265C101.379 147.589 100.224 148.575 98.6978 148.575C97.2037 148.575 96.0275 147.558 96.0169 146.244C95.9957 144.887 97.1613 143.859 98.719 143.859V143.859Z" fill="#F5F6F8"/>
<path id="Vector_54" d="M80.3867 203.933V195.848H82.1988V203.933H80.3867Z" fill="#F8F8FA"/>
<path id="Vector_55" d="M57.2546 195.899C57.8586 195.857 58.4626 195.804 59.1196 195.762V204.027C58.4732 203.964 57.8586 203.889 57.2334 203.826C57.2334 201.187 57.2334 198.538 57.244 195.899H57.2546Z" fill="#F8F8FA"/>
<path id="Vector_56" d="M78.0979 180.864V182.39H71.8564C71.9306 181.849 72.0048 181.341 72.079 180.832C74.0818 180.843 76.0845 180.853 78.0979 180.874V180.864Z" fill="#EAEDF6"/>
<path id="Vector_57" d="M136.528 164.515C136.528 158.74 136.507 152.965 136.496 147.19C136.496 146.035 136.496 144.88 136.485 143.725C136.549 143.979 136.676 144.233 136.676 144.488C136.687 150.878 136.676 157.257 136.676 163.647C136.676 163.933 136.581 164.229 136.528 164.515V164.515Z" fill="#16234A"/>
<path id="Vector_58" d="M52.7604 150.816C52.7604 155.426 52.7604 160.036 52.7604 164.645C52.6968 164.497 52.5908 164.348 52.5908 164.2C52.5908 159.887 52.5908 155.574 52.5908 151.261C52.5908 151.113 52.7074 150.965 52.771 150.816H52.7604Z" fill="#16234A"/>
<path id="Vector_59" d="M70.3939 195.881V203.977C71.9834 203.977 73.5305 203.977 75.0776 203.977C73.6047 204.03 72.1212 204.083 70.6482 204.104C70.5105 204.104 70.2561 203.818 70.2561 203.659C70.2349 201.137 70.2561 198.615 70.2667 196.093C70.2667 196.019 70.3515 195.955 70.3939 195.881V195.881Z" fill="#16234A"/>
<path id="Vector_60" d="M61.016 195.889V203.985C61.6624 203.985 62.277 203.985 62.881 203.985C62.3088 204.027 61.7366 204.091 61.1644 204.091C61.0584 204.091 60.8677 203.815 60.8677 203.656C60.8571 201.134 60.8677 198.612 60.8783 196.09C60.8783 196.026 60.9736 195.952 61.0266 195.889H61.016Z" fill="#16234A"/>
<path id="Vector_61" d="M107.992 159.711C107.96 159.521 107.939 159.341 107.896 159.033C111.51 159.033 115.07 159.033 118.631 159.033C118.313 159.097 117.995 159.203 117.677 159.203C114.784 159.213 111.902 159.203 109.009 159.235C108.67 159.235 108.331 159.542 107.992 159.711V159.711Z" fill="#1D2452"/>
<path id="Vector_62" d="M39.6113 159.195C39.8974 159.142 40.173 159.047 40.4591 159.047C43.7334 159.047 47.0184 159.047 50.2928 159.047C50.0703 159.11 49.8371 159.216 49.6146 159.216C46.2767 159.216 42.9493 159.216 39.6113 159.206V159.195Z" fill="#1D2452"/>
<path id="Vector_63" d="M82.453 176.133C82.453 178.962 82.453 181.791 82.453 184.621C82.3894 184.451 82.2622 184.282 82.2622 184.112C82.2516 181.622 82.241 179.132 82.2622 176.631C82.2622 176.461 82.3894 176.302 82.4636 176.133H82.453Z" fill="#1D2452"/>
<path id="Vector_64" d="M6.23091 176.133C6.23091 178.962 6.23091 181.791 6.23091 184.621C6.16733 184.451 6.04017 184.282 6.04017 184.112C6.02958 181.622 6.02958 179.132 6.04017 176.631C6.04017 176.461 6.16733 176.292 6.24151 176.133H6.23091Z" fill="#1D2452"/>
<path id="Vector_65" d="M131.981 143.879V151.678C131.918 151.72 131.854 151.763 131.791 151.816C131.663 151.646 131.526 151.487 131.398 151.318C131.536 151.053 131.78 150.788 131.791 150.512C131.822 148.594 131.801 146.666 131.822 144.748C131.822 144.462 131.928 144.176 131.992 143.889L131.981 143.879Z" fill="#1D2452"/>
<path id="Vector_66" d="M57.254 195.9C57.254 198.539 57.254 201.188 57.2434 203.827C57.201 203.753 57.1162 203.689 57.1162 203.615C57.1162 201.114 57.1162 198.603 57.1162 196.102C57.1162 196.038 57.2116 195.964 57.254 195.9V195.9Z" fill="#16234A"/>
<path id="Vector_67" d="M57.2646 164.632C57.2858 162.11 57.2964 159.588 57.3176 157.066C57.3706 157.331 57.4554 157.596 57.4554 157.861C57.4554 160.086 57.4554 162.312 57.4554 164.548C57.4554 164.569 57.4448 164.611 57.4236 164.622C57.3706 164.632 57.3176 164.632 57.2646 164.643V164.632Z" fill="#1D2452"/>
<path id="Vector_68" d="M88.451 176.096C88.451 177.781 88.451 179.465 88.451 181.362C88.2284 181.076 88.1543 180.97 88.0801 180.875C88.1331 179.593 88.186 178.31 88.2602 177.028C88.2814 176.721 88.3874 176.414 88.4616 176.106L88.451 176.096Z" fill="#16234A"/>
<path id="Vector_69" d="M12.2181 176.105C12.2181 177.79 12.2181 179.465 12.2181 181.361C11.9955 181.065 11.9213 180.959 11.8472 180.863C11.9107 179.592 11.9637 178.31 12.0379 177.038C12.0591 176.731 12.1545 176.423 12.2181 176.116V176.105Z" fill="#16234A"/>
<path id="Vector_70" d="M78.0971 180.865C76.0943 180.854 74.0915 180.843 72.0781 180.822C74.0809 180.833 76.0837 180.843 78.0971 180.865Z" fill="#16234A"/>
<path id="Vector_71" d="M66.6428 195.912V200.84C66.4202 200.522 66.3249 200.373 66.2295 200.236C66.3143 199.928 66.4414 199.621 66.4626 199.314C66.5368 198.18 66.5898 197.046 66.6428 195.912Z" fill="#16234A"/>
<path id="Vector_72" d="M39.6848 159.892C39.6636 159.775 39.653 159.659 39.6318 159.553C39.653 159.669 39.6636 159.786 39.6848 159.892Z" fill="#1D2452"/>
<path id="Vector_73" d="M143.437 199.545C144.147 199.397 144.603 199.598 144.9 200.213C145.175 200.785 145.588 201.315 145.991 201.94C146.373 201.347 146.744 200.838 147.03 200.298C147.358 199.683 147.793 199.312 148.672 199.577V203.54C147.86 203.681 147.401 203.226 147.295 202.173C147.093 202.449 146.977 202.661 146.807 202.83C146.542 203.106 146.245 203.349 145.97 203.614C145.716 203.371 145.44 203.127 145.196 202.873C145.048 202.714 144.942 202.523 144.72 202.237C144.656 202.788 144.614 203.18 144.571 203.583C144.222 203.519 143.861 203.445 143.543 203.392C143.501 203.286 143.459 203.233 143.459 203.18C143.448 201.972 143.437 200.764 143.427 199.556L143.437 199.545Z" fill="#2B346B"/>
<path id="Vector_74" d="M142.537 199.57V200.672C142.071 200.704 141.626 200.747 141.065 200.789C141.065 201.425 141.065 202.018 141.065 202.612C141.065 203.629 140.99 203.682 139.687 203.597V200.778C139.168 200.747 138.712 200.725 138.225 200.704V199.581H142.537V199.57Z" fill="#27316C"/>
<path id="Vector_75" d="M143.437 199.547C143.437 200.755 143.448 201.963 143.469 203.171C143.469 203.224 143.511 203.277 143.554 203.383C143.871 203.446 144.221 203.51 144.581 203.574C144.168 203.605 143.744 203.627 143.257 203.669C143.257 202.281 143.257 200.988 143.257 199.685C143.257 199.642 143.373 199.589 143.437 199.547Z" fill="#2F3155"/>
<path id="Vector_76" d="M24.3937 43.2637C26.2269 43.571 27.4561 44.9697 27.4137 46.697C27.3713 48.4772 26.0573 49.8018 24.0546 50.0562C22.6558 50.0562 21.257 50.0244 19.8583 50.0456C19.339 50.0456 19.1377 49.8866 19.1377 49.431C19.1589 47.5977 19.1589 45.7645 19.1377 43.9207C19.1377 43.4014 19.3602 43.2637 19.9113 43.2743C21.4054 43.2955 22.8995 43.2743 24.3937 43.2637V43.2637Z" fill="#EB2A33"/>
<path id="Vector_77" d="M24.394 43.2637C22.8998 43.2637 21.4057 43.2955 19.9116 43.2743C19.3605 43.2743 19.1274 43.4014 19.138 43.9207C19.1592 45.7539 19.1592 47.5871 19.138 49.431C19.138 49.8972 19.3393 50.0562 19.8586 50.0456C21.2573 50.035 22.6561 50.0456 24.0549 50.0562C22.3806 50.0562 20.7169 50.0562 19.0002 50.0562C18.9791 49.876 18.9473 49.6959 18.9473 49.5051C18.9473 47.4176 18.9473 45.33 18.9473 43.2637H24.394V43.2637Z" fill="#B55258"/>
<path id="Vector_78" d="M79.9307 24.6297C79.9201 21.9275 82.0183 19.9989 84.9959 19.9883C88.016 19.9777 90.2307 21.9169 90.2625 24.5873C90.2837 27.2789 88.1114 29.2498 85.0913 29.2604C82.0183 29.271 79.9519 27.406 79.9307 24.6297Z" fill="#EB2A33"/>
<path id="Vector_79" d="M60.4645 53.8006C60.4645 56.4604 58.271 58.3996 55.2721 58.389C52.1885 58.389 50.0691 56.4392 50.1009 53.6205C50.1327 51.0243 52.3368 49.0957 55.2827 49.0957C58.271 49.0957 60.4751 51.0879 60.4645 53.8006V53.8006Z" fill="#EB2A33"/>
<path id="Vector_80" d="M58.4512 22.9743C58.9598 20.9503 60.6447 19.8059 63.1031 19.7741C65.551 19.7423 67.2358 20.855 67.8081 22.9743H58.4512Z" fill="#E93138"/>
<path id="Vector_81" d="M105.129 52.1674H95.8145C96.1324 50.1329 98.3365 48.7447 100.964 48.8825C103.073 48.9884 104.959 50.3978 105.129 52.1674Z" fill="#EB2A33"/>
<path id="Vector_82" d="M56.9581 117.928C54.1182 117.907 51.9247 115.926 51.9141 113.382C51.9035 110.765 54.1712 108.773 57.1171 108.815C59.957 108.858 62.1293 110.85 62.1081 113.403C62.0869 115.978 59.851 117.949 56.9581 117.939V117.928Z" fill="#EB2A33"/>
<path id="Vector_83" d="M42.8645 82.9097C42.8539 85.5483 40.724 87.4239 37.7569 87.4027C34.864 87.3921 32.7129 85.4741 32.7129 82.8991C32.7129 80.3135 34.9594 78.2895 37.8099 78.3107C40.7134 78.3319 42.8751 80.3029 42.8645 82.9097Z" fill="#EB2A33"/>
<path id="Vector_84" d="M108.022 115.578C110.036 115.599 111.445 116.903 111.413 118.694C111.381 120.442 109.855 121.756 107.884 121.724C105.924 121.692 104.451 120.325 104.483 118.588C104.515 116.818 105.998 115.557 108.022 115.589V115.578ZM107.471 119.117C107.567 119.086 107.662 119.043 107.757 119.011C108.022 119.361 108.298 119.7 108.541 120.061C108.859 120.527 109.241 120.686 109.824 120.378C109.485 119.891 109.188 119.446 108.891 119.022C109.686 118.27 109.866 117.856 109.485 117.369C108.711 116.362 107.567 116.818 106.528 116.754V120.548C106.867 120.516 107.132 120.506 107.397 120.484C107.429 119.986 107.45 119.562 107.471 119.139V119.117Z" fill="#E53036"/>
<path id="Vector_85" d="M124.479 157.893C124.501 155.763 125.635 154.269 127.298 153.94C129.916 153.421 131.791 154.703 131.993 157.193C132.046 157.819 132.003 158.476 131.865 159.101C131.505 160.68 130.17 161.591 128.337 161.602C126.567 161.602 125.136 160.659 124.702 159.143C124.564 158.666 124.522 158.168 124.479 157.893V157.893Z" fill="#27316C"/>
<path id="Vector_86" d="M39.6523 155.76C40.0656 154.202 41.1783 153.481 43.0009 153.577C44.6222 153.661 45.4911 154.435 45.7031 155.982C45.4169 156.067 45.1414 156.226 44.8553 156.236C43.3612 156.258 41.8776 156.268 40.3835 156.236C40.1292 156.236 39.8961 155.94 39.6523 155.781V155.76Z" fill="#27316C"/>
<path id="Vector_87" d="M39.6526 155.763C39.8963 155.922 40.14 156.218 40.3838 156.218C41.8673 156.261 43.3614 156.25 44.8556 156.218C45.1417 156.218 45.4172 156.059 45.7033 155.964C45.9576 156.42 45.6185 156.398 45.2794 156.398C43.4144 156.398 41.5494 156.398 39.5996 156.398C39.6208 156.155 39.642 155.953 39.6526 155.752V155.763Z" fill="#16234A"/>
<path id="Vector_88" d="M107.938 156.268C107.99 154.615 109.199 153.556 111.042 153.545C112.876 153.545 114.073 154.605 114.115 156.3C114.115 156.332 114.031 156.353 113.988 156.385C113.776 156.342 113.575 156.258 113.363 156.258C111.551 156.258 109.739 156.258 107.938 156.279V156.268Z" fill="#27316C"/>
<path id="Vector_89" d="M107.938 156.267C109.75 156.267 111.562 156.246 113.363 156.246C113.575 156.246 113.776 156.331 113.988 156.373C112.07 156.384 110.152 156.394 108.234 156.394C108.139 156.394 108.043 156.31 107.948 156.257L107.938 156.267Z" fill="#16234A"/>
<path id="Vector_90" d="M99.8834 180.397C99.8834 182.125 98.7284 183.227 96.9163 183.237C95.0619 183.248 93.8645 182.114 93.8751 180.366C93.8857 178.681 95.1043 177.547 96.8951 177.547C98.686 177.547 99.8834 178.691 99.8728 180.397H99.8834Z" fill="#27316C"/>
<path id="Vector_91" d="M23.854 180.358C23.8646 182.085 22.7202 183.208 20.9293 183.24C19.0855 183.272 17.8457 182.138 17.8457 180.4C17.8457 178.705 19.0431 177.56 20.834 177.539C22.6248 177.529 23.854 178.662 23.8646 180.347L23.854 180.358Z" fill="#27316C"/>
<path id="Vector_92" d="M72.3643 202.514V197.215C73.8584 197.279 75.5009 196.802 76.4864 198.19C77.2493 199.26 77.2599 200.468 76.4864 201.549C75.4797 202.948 73.8584 202.418 72.3749 202.514H72.3643Z" fill="#27316C"/>
<path id="Vector_93" d="M128.147 180.44C128.041 181.054 127.998 181.658 127.818 182.231C127.638 182.813 127.204 183.248 126.419 183.237C125.678 183.227 125.169 182.813 125.116 182.252C124.999 181.044 124.989 179.815 125.095 178.596C125.148 178.013 125.656 177.547 126.441 177.547C127.278 177.547 127.67 178.045 127.85 178.66C128.019 179.242 128.051 179.846 128.147 180.44Z" fill="#27316C"/>
<path id="Vector_94" d="M51.9236 180.38C51.8282 180.994 51.7858 181.577 51.6375 182.128C51.4679 182.753 51.0652 183.23 50.2387 183.23C49.4545 183.23 48.9353 182.785 48.8823 182.192C48.7764 181.005 48.7658 179.807 48.8823 178.621C48.9353 178.006 49.4651 177.519 50.2917 177.54C51.0758 177.561 51.4573 178.038 51.6269 178.621C51.7858 179.203 51.8388 179.807 51.9342 180.369L51.9236 180.38Z" fill="#27316C"/>
<path id="Vector_95" d="M87.9737 198.385C88.4293 199.36 88.779 200.133 89.1711 200.97H86.7762C87.1789 200.091 87.5498 199.307 87.9737 198.385V198.385Z" fill="#2B346B"/>
<path id="Vector_96" d="M107.461 119.119C107.439 119.543 107.418 119.967 107.387 120.465C107.122 120.486 106.857 120.507 106.518 120.528V116.735C107.556 116.809 108.711 116.353 109.474 117.349C109.856 117.837 109.665 118.25 108.881 119.002C109.177 119.437 109.474 119.871 109.813 120.359C109.23 120.666 108.849 120.507 108.531 120.041C108.287 119.68 108.012 119.341 107.747 118.992C107.651 119.023 107.556 119.066 107.461 119.098V119.119ZM107.704 117.275C107.63 117.36 107.567 117.445 107.492 117.529V118.366C107.577 118.43 107.651 118.494 107.736 118.547L108.626 117.89C108.319 117.678 108.012 117.476 107.704 117.264V117.275Z" fill="#F6E5E5"/>
<path id="Vector_97" d="M107.704 117.285C108.011 117.497 108.319 117.699 108.626 117.911L107.736 118.568C107.651 118.504 107.577 118.44 107.492 118.387V117.55C107.566 117.465 107.63 117.381 107.704 117.296V117.285Z" fill="#E53036"/>
</g>
</svg>
